<svg version="1.1" xmlns="http://www.w3.org/2000/svg" xmlns:xlink="http://www.w3.org/1999/xlink" width="915" height="516"><defs/><g><g transform="translate(-206,-174) scale(1,1)"><rect fill="#ffffff" stroke="none" x="280" y="184" width="232" height="28"/></g><g transform="translate(-206,-174) scale(1,1)"><path fill="none" stroke="#000000" d="M 280 184 L 512 184 L 512 212 L 280 212 L 280 184 Z Z" stroke-miterlimit="10" stroke-width="2"/></g><g transform="translate(-206,-174) scale(1,1)"><path fill="none" stroke="#000000" d="M 280 680 L 280 184 L 512 184 L 512 680" stroke-miterlimit="10" stroke-width="2"/></g><g transform="translate(-206,-174) scale(1,1)"><g><path fill="none" stroke="none"/><text fill="#000000" stroke="none" font-family="PT Sans" font-size="20px" font-style="normal" font-weight="normal" text-decoration="none" x="352.92003631591797" y="208">Anwender</text></g></g><g transform="translate(-206,-174) scale(1,1)"><rect fill="#ffffff" stroke="none" x="512" y="184" width="328" height="28"/></g><g transform="translate(-206,-174) scale(1,1)"><path fill="none" stroke="#000000" d="M 512 184 L 840 184 L 840 212 L 512 212 L 512 184 Z Z" stroke-miterlimit="10" stroke-width="2"/></g><g transform="translate(-206,-174) scale(1,1)"><path fill="none" stroke="#000000" d="M 512 680 L 512 184 L 840 184 L 840 680" stroke-miterlimit="10" stroke-width="2"/></g><g transform="translate(-206,-174) scale(1,1)"><g><path fill="none" stroke="none"/><text fill="#000000" stroke="none" font-family="PT Sans" font-size="20px" font-style="normal" font-weight="normal" text-decoration="none" x="624.0300445556641" y="208">Smartphone</text></g></g><g transform="translate(-206,-174) scale(1,1)"><path fill="#C0C0C0" stroke="none" d="M 313 255 L 496.8798522949219 255 Q 506.8798522949219 255 506.8798522949219 265 L 506.8798522949219 301 Q 506.8798522949219 311 496.8798522949219 311 L 313 311 Q 303 311 303 301 L 303 265 Q 303 255 313 255 Z" opacity="0.2"/></g><g transform="translate(-206,-174) scale(1,1)"><path fill="#ffffff" stroke="none" d="M 306 248 L 489.8798522949219 248 Q 499.8798522949219 248 499.8798522949219 258 L 499.8798522949219 294 Q 499.8798522949219 304 489.8798522949219 304 L 306 304 Q 296 304 296 294 L 296 258 Q 296 248 306 248 Z"/></g><g transform="translate(-206,-174) scale(1,1)"><path fill="none" stroke="#000000" d="M 306 248 L 489.8798522949219 248 Q 499.8798522949219 248 499.8798522949219 258 L 499.8798522949219 294 Q 499.8798522949219 304 489.8798522949219 304 L 306 304 Q 296 304 296 294 L 296 258 Q 296 248 306 248 Z" stroke-miterlimit="10"/></g><g transform="translate(-206,-174) scale(1,1)"><g><path fill="none" stroke="none"/><text fill="#000000" stroke="none" font-family="PT Sans" font-size="20px" font-style="normal" font-weight="bold" text-decoration="none" x="300.27000427246094" y="274.5">Scannen des Merkmals</text></g></g><g transform="translate(-206,-174) scale(1,1)"><path fill="#C0C0C0" stroke="none" d="M 231 288.5 C 231 283.2532944 235.2532944 279 240.5 279 C 245.7467056 279 250 283.2532944 250 288.5 C 250 293.7467056 245.7467056 298 240.5 298 C 235.2532944 298 231 293.7467056 231 288.5 Z" opacity="0.2"/></g><g transform="translate(-206,-174) scale(1,1)"><path fill="#000000" stroke="none" d="M 224 281.5 C 224 276.2532944 228.2532944 272 233.5 272 C 238.7467056 272 243 276.2532944 243 281.5 C 243 286.7467056 238.7467056 291 233.5 291 C 228.2532944 291 224 286.7467056 224 281.5 Z"/></g><g transform="translate(-206,-174) scale(1,1)"><path fill="none" stroke="#000000" d="M 243 280 L 296 280" stroke-miterlimit="10"/></g><g transform="translate(-206,-174) scale(1,1)"><path fill="none" stroke="#000000" d="M 285.83732514237585 284.209517756016 L 296 280 L 285.83732514237585 275.790482243984" stroke-miterlimit="10"/></g><g transform="translate(-206,-174) scale(1,1)"><rect fill="#ffffff" stroke="none" x="840" y="184" width="271" height="28"/></g><g transform="translate(-206,-174) scale(1,1)"><path fill="none" stroke="#000000" d="M 840 184 L 1111 184 L 1111 212 L 840 212 L 840 184 Z Z" stroke-miterlimit="10" stroke-width="2"/></g><g transform="translate(-206,-174) scale(1,1)"><path fill="none" stroke="#000000" d="M 840 680 L 840 184 L 1111 184 L 1111 680" stroke-miterlimit="10" stroke-width="2"/></g><g transform="translate(-206,-174) scale(1,1)"><g><path fill="none" stroke="none"/><text fill="#000000" stroke="none" font-family="PT Sans" font-size="20px" font-style="normal" font-weight="normal" text-decoration="none" x="944.7300186157227" y="208">System</text></g></g><g transform="translate(-206,-174) scale(1,1)"><path fill="#C0C0C0" stroke="none" d="M 633 255 L 722.1399078369141 255 Q 732.1399078369141 255 732.1399078369141 265 L 732.1399078369141 308 Q 732.1399078369141 318 722.1399078369141 318 L 633 318 Q 623 318 623 308 L 623 265 Q 623 255 633 255 Z" opacity="0.2"/></g><g transform="translate(-206,-174) scale(1,1)"><path fill="#ffffff" stroke="none" d="M 626 248 L 715.1399078369141 248 Q 725.1399078369141 248 725.1399078369141 258 L 725.1399078369141 301 Q 725.1399078369141 311 715.1399078369141 311 L 626 311 Q 616 311 616 301 L 616 258 Q 616 248 626 248 Z"/></g><g transform="translate(-206,-174) scale(1,1)"><path fill="none" stroke="#000000" d="M 626 248 L 715.1399078369141 248 Q 725.1399078369141 248 725.1399078369141 258 L 725.1399078369141 301 Q 725.1399078369141 311 715.1399078369141 311 L 626 311 Q 616 311 616 301 L 616 258 Q 616 248 626 248 Z" stroke-miterlimit="10"/></g><g transform="translate(-206,-174) scale(1,1)"><g><path fill="none" stroke="none"/><text fill="#000000" stroke="none" font-family="PT Sans" font-size="20px" font-style="normal" font-weight="bold" text-decoration="none" x="622.5400238037109" y="274.5">verifizieren</text></g></g><g transform="translate(-206,-174) scale(1,1)"><path fill="none" stroke="#000000" d="M 500 278 L 616 278" stroke-miterlimit="10"/></g><g transform="translate(-206,-174) scale(1,1)"><path fill="none" stroke="#000000" d="M 605.8373251423759 282.209517756016 L 616 278 L 605.8373251423758 273.790482243984" stroke-miterlimit="10"/></g><g transform="translate(-206,-174) scale(1,1)"><path fill="#C0C0C0" stroke="none" d="M 647 395.5 L 679.5 367 L 711 395.5 L 679.5 423 L 647 395.5" opacity="0.2"/></g><g transform="translate(-206,-174) scale(1,1)"><path fill="#ffffff" stroke="none" d="M 640 388 L 672 360 L 704 388 L 672 416 L 640 388"/></g><g transform="translate(-206,-174) scale(1,1)"><path fill="none" stroke="#000000" d="M 640 388 L 672 360 L 704 388 L 672 416 L 640 388 L 640 388" stroke-miterlimit="10"/></g><g transform="translate(-206,-174) scale(1,1)"><path fill="none" stroke="#000000" d="M 671 311 L 671 360" stroke-miterlimit="10"/></g><g transform="translate(-206,-174) scale(1,1)"><path fill="none" stroke="#000000" d="M 666.790482243984 349.83732514237585 L 671 360 L 675.209517756016 349.83732514237585" stroke-miterlimit="10"/></g><g transform="translate(-206,-174) scale(1,1)"><path fill="#C0C0C0" stroke="none" d="M 889 367 L 1081.3998260498047 367 Q 1091.3998260498047 367 1091.3998260498047 377 L 1091.3998260498047 412 Q 1091.3998260498047 422 1081.3998260498047 422 L 889 422 Q 879 422 879 412 L 879 377 Q 879 367 889 367 Z" opacity="0.2"/></g><g transform="translate(-206,-174) scale(1,1)"><path fill="#ffffff" stroke="none" d="M 882 360 L 1074.3998260498047 360 Q 1084.3998260498047 360 1084.3998260498047 370 L 1084.3998260498047 405 Q 1084.3998260498047 415 1074.3998260498047 415 L 882 415 Q 872 415 872 405 L 872 370 Q 872 360 882 360 Z"/></g><g transform="translate(-206,-174) scale(1,1)"><path fill="none" stroke="#000000" d="M 882 360 L 1074.3998260498047 360 Q 1084.3998260498047 360 1084.3998260498047 370 L 1084.3998260498047 405 Q 1084.3998260498047 415 1074.3998260498047 415 L 882 415 Q 872 415 872 405 L 872 370 Q 872 360 882 360 Z" stroke-miterlimit="10"/></g><g transform="translate(-206,-174) scale(1,1)"><g><path fill="none" stroke="none"/><text fill="#000000" stroke="none" font-family="PT Sans" font-size="20px" font-style="normal" font-weight="bold" text-decoration="none" x="876.7000122070312" y="386.5">QR_Code wird generiert</text></g></g><g transform="translate(-206,-174) scale(1,1)"><path fill="none" stroke="#000000" d="M 704 386 L 872 386" stroke-miterlimit="10"/></g><g transform="translate(-206,-174) scale(1,1)"><path fill="none" stroke="#000000" d="M 861.8373251423759 390.209517756016 L 872 386 L 861.8373251423758 381.790482243984" stroke-miterlimit="10"/></g><g transform="translate(-206,-174) scale(1,1)"><g><path fill="none" stroke="none"/><text fill="#000000" stroke="none" font-family="PT Sans" font-size="20px" font-style="normal" font-weight="normal" text-decoration="none" x="719.5" y="378.5">[erfolgreich]</text></g></g><g transform="translate(-206,-174) scale(1,1)"><path fill="none" stroke="#000000" d="M 670 416 L 670 480" stroke-miterlimit="10"/></g><g transform="translate(-206,-174) scale(1,1)"><path fill="none" stroke="#000000" d="M 665.790482243984 469.83732514237585 L 670 480 L 674.209517756016 469.83732514237585" stroke-miterlimit="10"/></g><g transform="translate(-206,-174) scale(1,1)"><g><path fill="none" stroke="none"/><text fill="#000000" stroke="none" font-family="PT Sans" font-size="20px" font-style="normal" font-weight="normal" text-decoration="none" x="671.5" y="454.5">[nicht erfolgreich]</text></g></g><g transform="translate(-206,-174) scale(1,1)"><rect fill="#C0C0C0" stroke="none" x="919" y="487" width="120.43991088867188" height="31" opacity="0.2"/></g><g transform="translate(-206,-174) scale(1,1)"><rect fill="#ffffff" stroke="none" x="912" y="480" width="120.43991088867188" height="31"/></g><g transform="translate(-206,-174) scale(1,1)"><path fill="none" stroke="#000000" d="M 912 480 L 1032.4399108886719 480 L 1032.4399108886719 511 L 912 511 L 912 480 Z Z" stroke-miterlimit="10"/></g><g transform="translate(-206,-174) scale(1,1)"><rect fill="#ffffff" stroke="none" x="912" y="480" width="120.43991088867188" height="31"/></g><g transform="translate(-206,-174) scale(1,1)"><path fill="none" stroke="#000000" d="M 912 480 L 1032.4399108886719 480 L 1032.4399108886719 511 L 912 511 L 912 480 Z Z" stroke-miterlimit="10"/></g><g transform="translate(-206,-174) scale(1,1)"><g><path fill="none" stroke="none"/><text fill="#000000" stroke="none" font-family="PT Sans" font-size="20px" font-style="normal" font-weight="bold" text-decoration="none" x="933.8199844360352" y="506.5">QR_Code</text></g></g><g transform="translate(-206,-174) scale(1,1)"><path fill="none" stroke="#000000" d="M 968 415 L 968 480" stroke-miterlimit="10"/></g><g transform="translate(-206,-174) scale(1,1)"><path fill="none" stroke="#000000" d="M 963.790482243984 469.83732514237585 L 968 480 L 972.209517756016 469.83732514237585" stroke-miterlimit="10"/></g><g transform="translate(-206,-174) scale(1,1)"><path fill="#C0C0C0" stroke="none" d="M 897 588 L 1084.5598602294922 588 Q 1094.5598602294922 588 1094.5598602294922 598 L 1094.5598602294922 625 Q 1094.5598602294922 635 1084.5598602294922 635 L 897 635 Q 887 635 887 625 L 887 598 Q 887 588 897 588 Z" opacity="0.2"/></g><g transform="translate(-206,-174) scale(1,1)"><path fill="#ffffff" stroke="none" d="M 890 581 L 1077.5598602294922 581 Q 1087.5598602294922 581 1087.5598602294922 591 L 1087.5598602294922 618 Q 1087.5598602294922 628 1077.5598602294922 628 L 890 628 Q 880 628 880 618 L 880 591 Q 880 581 890 581 Z"/></g><g transform="translate(-206,-174) scale(1,1)"><path fill="none" stroke="#000000" d="M 890 581 L 1077.5598602294922 581 Q 1087.5598602294922 581 1087.5598602294922 591 L 1087.5598602294922 618 Q 1087.5598602294922 628 1077.5598602294922 628 L 890 628 Q 880 628 880 618 L 880 591 Q 880 581 890 581 Z" stroke-miterlimit="10"/></g><g transform="translate(-206,-174) scale(1,1)"><g><path fill="none" stroke="none"/><text fill="#000000" stroke="none" font-family="PT Sans" font-size="20px" font-style="normal" font-weight="bold" text-decoration="none" x="884.2500152587891" y="607.5">Senden an Smartphone</text></g></g><g transform="translate(-206,-174) scale(1,1)"><path fill="none" stroke="#000000" d="M 969 511 L 969 581" stroke-miterlimit="10"/></g><g transform="translate(-206,-174) scale(1,1)"><path fill="none" stroke="#000000" d="M 964.790482243984 570.8373251423759 L 969 581 L 973.209517756016 570.8373251423759" stroke-miterlimit="10"/></g><g transform="translate(-206,-174) scale(1,1)"><path fill="#C0C0C0" stroke="none" d="M 759 515.5 C 759 508.59644 764.59644 503 771.5 503 C 778.40356 503 784 508.59644 784 515.5 C 784 522.40356 778.40356 528 771.5 528 C 764.59644 528 759 522.40356 759 515.5 Z" opacity="0.2"/></g><g transform="translate(-206,-174) scale(1,1)"><path fill="#ffffff" stroke="none" d="M 752 508.5 C 752 501.59644 757.59644 496 764.5 496 C 771.40356 496 777 501.59644 777 508.5 C 777 515.40356 771.40356 521 764.5 521 C 757.59644 521 752 515.40356 752 508.5 Z"/></g><g transform="translate(-206,-174) scale(1,1)"><path fill="none" stroke="#000000" d="M 752 508.5 C 752 501.59644 757.59644 496 764.5 496 C 771.40356 496 777 501.59644 777 508.5 C 777 515.40356 771.40356 521 764.5 521 C 757.59644 521 752 515.40356 752 508.5 Z" stroke-miterlimit="10"/></g><g transform="translate(-206,-174) scale(1,1)"><path fill="none" stroke="#000000" d="M 755 499 L 773 517" stroke-miterlimit="10"/></g><g transform="translate(-206,-174) scale(1,1)"><path fill="none" stroke="#000000" d="M 773 499 L 755 517" stroke-miterlimit="10"/></g><g transform="translate(-206,-174) scale(1,1)"><path fill="none" stroke="#000000" d="M 691 513 L 752 513" stroke-miterlimit="10"/></g><g transform="translate(-206,-174) scale(1,1)"><path fill="none" stroke="#000000" d="M 741.8373251423759 517.209517756016 L 752 513 L 741.8373251423758 508.790482243984" stroke-miterlimit="10"/></g><g transform="translate(-206,-174) scale(1,1)"><path fill="none" stroke="#000000" d="M 880 607 L 736 607" stroke-miterlimit="10"/></g><g transform="translate(-206,-174) scale(1,1)"><path fill="none" stroke="#000000" d="M 746.1626748576241 602.790482243984 L 736 607 L 746.1626748576241 611.209517756016" stroke-miterlimit="10"/></g><g transform="translate(-206,-174) scale(1,1)"><rect fill="#C0C0C0" stroke="none" x="623" y="599" width="120.43991088867188" height="31" opacity="0.2"/></g><g transform="translate(-206,-174) scale(1,1)"><rect fill="#ffffff" stroke="none" x="616" y="592" width="120.43991088867188" height="31"/></g><g transform="translate(-206,-174) scale(1,1)"><path fill="none" stroke="#000000" d="M 616 592 L 736.4399108886719 592 L 736.4399108886719 623 L 616 623 L 616 592 Z Z" stroke-miterlimit="10"/></g><g transform="translate(-206,-174) scale(1,1)"><rect fill="#ffffff" stroke="none" x="616" y="592" width="120.43991088867188" height="31"/></g><g transform="translate(-206,-174) scale(1,1)"><path fill="none" stroke="#000000" d="M 616 592 L 736.4399108886719 592 L 736.4399108886719 623 L 616 623 L 616 592 Z Z" stroke-miterlimit="10"/></g><g transform="translate(-206,-174) scale(1,1)"><g><path fill="none" stroke="none"/><text fill="#000000" stroke="none" font-family="PT Sans" font-size="20px" font-style="normal" font-weight="bold" text-decoration="none" x="637.8199844360352" y="618.5">QR_Code</text></g></g><g transform="translate(-206,-174) scale(1,1)"><path fill="#C0C0C0" stroke="none" d="M 321 591 L 471.85986328125 591 Q 481.85986328125 591 481.85986328125 601 L 481.85986328125 628 Q 481.85986328125 638 471.85986328125 638 L 321 638 Q 311 638 311 628 L 311 601 Q 311 591 321 591 Z" opacity="0.2"/></g><g transform="translate(-206,-174) scale(1,1)"><path fill="#ffffff" stroke="none" d="M 314 584 L 464.85986328125 584 Q 474.85986328125 584 474.85986328125 594 L 474.85986328125 621 Q 474.85986328125 631 464.85986328125 631 L 314 631 Q 304 631 304 621 L 304 594 Q 304 584 314 584 Z"/></g><g transform="translate(-206,-174) scale(1,1)"><path fill="none" stroke="#000000" d="M 314 584 L 464.85986328125 584 Q 474.85986328125 584 474.85986328125 594 L 474.85986328125 621 Q 474.85986328125 631 464.85986328125 631 L 314 631 Q 304 631 304 621 L 304 594 Q 304 584 314 584 Z" stroke-miterlimit="10"/></g><g transform="translate(-206,-174) scale(1,1)"><g><path fill="none" stroke="none"/><text fill="#000000" stroke="none" font-family="PT Sans" font-size="20px" font-style="normal" font-weight="bold" text-decoration="none" x="308.02001190185547" y="610.5">Einscannen am Tor</text></g></g><g transform="translate(-206,-174) scale(1,1)"><path fill="none" stroke="#000000" d="M 616 607 L 475 607" stroke-miterlimit="10"/></g><g transform="translate(-206,-174) scale(1,1)"><path fill="none" stroke="#000000" d="M 485.16267485762415 602.790482243984 L 475 607 L 485.16267485762415 611.209517756016" stroke-miterlimit="10"/></g><g transform="translate(-206,-174) scale(1,1)"><path fill="#C0C0C0" stroke="none" d="M 223 619.5 C 223 612.59644 228.59644 607 235.5 607 C 242.40356 607 248 612.59644 248 619.5 C 248 626.40356 242.40356 632 235.5 632 C 228.59644 632 223 626.40356 223 619.5 Z" opacity="0.2"/></g><g transform="translate(-206,-174) scale(1,1)"><path fill="none" stroke="#000000" d="M 216 612.5 C 216 605.59644 221.59644 600 228.5 600 C 235.40356 600 241 605.59644 241 612.5 C 241 619.40356 235.40356 625 228.5 625 C 221.59644 625 216 619.40356 216 612.5 Z" stroke-miterlimit="10"/></g><g transform="translate(-206,-174) scale(1,1)"><path fill="#000000" stroke="none" d="M 221 612.5 C 221 608.357864 224.357864 605 228.5 605 C 232.642136 605 236 608.357864 236 612.5 C 236 616.642136 232.642136 620 228.5 620 C 224.357864 620 221 616.642136 221 612.5 Z"/></g><g transform="translate(-206,-174) scale(1,1)"><path fill="none" stroke="#000000" d="M 304 612 L 241 612" stroke-miterlimit="10"/></g><g transform="translate(-206,-174) scale(1,1)"><path fill="none" stroke="#000000" d="M 251.16267485762415 607.790482243984 L 241 612 L 251.16267485762415 616.209517756016" stroke-miterlimit="10"/></g><g transform="translate(-206,-174) scale(1,1)"><path fill="#C0C0C0" stroke="none" d="M 537 487 L 688.0398712158203 487 Q 698.0398712158203 487 698.0398712158203 497 L 698.0398712158203 533 Q 698.0398712158203 543 688.0398712158203 543 L 537 543 Q 527 543 527 533 L 527 497 Q 527 487 537 487 Z" opacity="0.2"/></g><g transform="translate(-206,-174) scale(1,1)"><path fill="#ffffff" stroke="none" d="M 530 480 L 681.0398712158203 480 Q 691.0398712158203 480 691.0398712158203 490 L 691.0398712158203 526 Q 691.0398712158203 536 681.0398712158203 536 L 530 536 Q 520 536 520 526 L 520 490 Q 520 480 530 480 Z"/></g><g transform="translate(-206,-174) scale(1,1)"><path fill="none" stroke="#000000" d="M 530 480 L 681.0398712158203 480 Q 691.0398712158203 480 691.0398712158203 490 L 691.0398712158203 526 Q 691.0398712158203 536 681.0398712158203 536 L 530 536 Q 520 536 520 526 L 520 490 Q 520 480 530 480 Z" stroke-miterlimit="10"/></g><g transform="translate(-206,-174) scale(1,1)"><g><path fill="none" stroke="none"/><text fill="#000000" stroke="none" font-family="PT Sans" font-size="20px" font-style="normal" font-weight="bold" text-decoration="none" x="524.3699951171875" y="506.5">Meldung ausgeben</text></g></g></g></svg>