<svg version="1.1" xmlns="http://www.w3.org/2000/svg" xmlns:xlink="http://www.w3.org/1999/xlink" width="1013" height="620"><defs/><g><g transform="translate(-174,-94) scale(1,1)"><rect fill="#ffffff" stroke="none" x="256" y="104" width="296" height="28"/></g><g transform="translate(-174,-94) scale(1,1)"><path fill="none" stroke="#000000" d="M 256 104 L 552 104 L 552 132 L 256 132 L 256 104 Z Z" stroke-miterlimit="10" stroke-width="2"/></g><g transform="translate(-174,-94) scale(1,1)"><path fill="none" stroke="#000000" d="M 256 704 L 256 104 L 552 104 L 552 704" stroke-miterlimit="10" stroke-width="2"/></g><g transform="translate(-174,-94) scale(1,1)"><g><path fill="none" stroke="none"/><text fill="#000000" stroke="none" font-family="PT Sans" font-size="20px" font-style="normal" font-weight="normal" text-decoration="none" x="360.92003631591797" y="128">Anwender</text></g></g><g transform="translate(-174,-94) scale(1,1)"><rect fill="#ffffff" stroke="none" x="552" y="104" width="576" height="28"/></g><g transform="translate(-174,-94) scale(1,1)"><path fill="none" stroke="#000000" d="M 552 104 L 1128 104 L 1128 132 L 552 132 L 552 104 Z Z" stroke-miterlimit="10" stroke-width="2"/></g><g transform="translate(-174,-94) scale(1,1)"><path fill="none" stroke="#000000" d="M 552 704 L 552 104 L 1128 104 L 1128 704" stroke-miterlimit="10" stroke-width="2"/></g><g transform="translate(-174,-94) scale(1,1)"><g><path fill="none" stroke="none"/><text fill="#000000" stroke="none" font-family="PT Sans" font-size="20px" font-style="normal" font-weight="normal" text-decoration="none" x="809.2300186157227" y="128">System</text></g></g><g transform="translate(-174,-94) scale(1,1)"><path fill="#C0C0C0" stroke="none" d="M 313 167 L 500.83985900878906 167 Q 510.83985900878906 167 510.83985900878906 177 L 510.83985900878906 213 Q 510.83985900878906 223 500.83985900878906 223 L 313 223 Q 303 223 303 213 L 303 177 Q 303 167 313 167 Z" opacity="0.2"/></g><g transform="translate(-174,-94) scale(1,1)"><path fill="#ffffff" stroke="none" d="M 306 160 L 493.83985900878906 160 Q 503.83985900878906 160 503.83985900878906 170 L 503.83985900878906 206 Q 503.83985900878906 216 493.83985900878906 216 L 306 216 Q 296 216 296 206 L 296 170 Q 296 160 306 160 Z"/></g><g transform="translate(-174,-94) scale(1,1)"><path fill="none" stroke="#000000" d="M 306 160 L 493.83985900878906 160 Q 503.83985900878906 160 503.83985900878906 170 L 503.83985900878906 206 Q 503.83985900878906 216 493.83985900878906 216 L 306 216 Q 296 216 296 206 L 296 170 Q 296 160 306 160 Z" stroke-miterlimit="10"/></g><g transform="translate(-174,-94) scale(1,1)"><g><path fill="none" stroke="none"/><text fill="#000000" stroke="none" font-family="PT Sans" font-size="20px" font-style="normal" font-weight="bold" text-decoration="none" x="300.5600051879883" y="186.5">Anwender scannt Karte</text></g></g><g transform="translate(-174,-94) scale(1,1)"><path fill="#C0C0C0" stroke="none" d="M 191 200.5 C 191 195.2532944 195.2532944 191 200.5 191 C 205.7467056 191 210 195.2532944 210 200.5 C 210 205.7467056 205.7467056 210 200.5 210 C 195.2532944 210 191 205.7467056 191 200.5 Z" opacity="0.2"/></g><g transform="translate(-174,-94) scale(1,1)"><path fill="#000000" stroke="none" d="M 184 193.5 C 184 188.2532944 188.2532944 184 193.5 184 C 198.7467056 184 203 188.2532944 203 193.5 C 203 198.7467056 198.7467056 203 193.5 203 C 188.2532944 203 184 198.7467056 184 193.5 Z"/></g><g transform="translate(-174,-94) scale(1,1)"><path fill="none" stroke="#000000" d="M 203 193 L 296 193" stroke-miterlimit="10"/></g><g transform="translate(-174,-94) scale(1,1)"><path fill="none" stroke="#000000" d="M 285.83732514237585 197.209517756016 L 296 193 L 285.83732514237585 188.790482243984" stroke-miterlimit="10"/></g><g transform="translate(-174,-94) scale(1,1)"><path fill="#C0C0C0" stroke="none" d="M 297 293 L 513.2598419189453 293 Q 523.2598419189453 293 523.2598419189453 303 L 523.2598419189453 330 Q 523.2598419189453 340 513.2598419189453 340 L 297 340 Q 287 340 287 330 L 287 303 Q 287 293 297 293 Z" opacity="0.2"/></g><g transform="translate(-174,-94) scale(1,1)"><path fill="#ffffff" stroke="none" d="M 290 286 L 506.2598419189453 286 Q 516.2598419189453 286 516.2598419189453 296 L 516.2598419189453 323 Q 516.2598419189453 333 506.2598419189453 333 L 290 333 Q 280 333 280 323 L 280 296 Q 280 286 290 286 Z"/></g><g transform="translate(-174,-94) scale(1,1)"><path fill="none" stroke="#000000" d="M 290 286 L 506.2598419189453 286 Q 516.2598419189453 286 516.2598419189453 296 L 516.2598419189453 323 Q 516.2598419189453 333 506.2598419189453 333 L 290 333 Q 280 333 280 323 L 280 296 Q 280 286 290 286 Z" stroke-miterlimit="10"/></g><g transform="translate(-174,-94) scale(1,1)"><g><path fill="none" stroke="none"/><text fill="#000000" stroke="none" font-family="PT Sans" font-size="20px" font-style="normal" font-weight="bold" text-decoration="none" x="284.52001190185547" y="312.5">Anwender scannt Merkmal</text></g></g><g transform="translate(-174,-94) scale(1,1)"><path fill="none" stroke="#000000" d="M 400 216 L 400 286" stroke-miterlimit="10"/></g><g transform="translate(-174,-94) scale(1,1)"><path fill="none" stroke="#000000" d="M 395.790482243984 275.83732514237585 L 400 286 L 404.209517756016 275.83732514237585" stroke-miterlimit="10"/></g><g transform="translate(-174,-94) scale(1,1)"><path fill="none" stroke="#000000" d="M 504 191 L 688 191" stroke-miterlimit="10"/></g><g transform="translate(-174,-94) scale(1,1)"><path fill="none" stroke="#000000" d="M 677.8373251423759 195.209517756016 L 688 191 L 677.8373251423758 186.790482243984" stroke-miterlimit="10"/></g><g transform="translate(-174,-94) scale(1,1)"><rect fill="#C0C0C0" stroke="none" x="695" y="183" width="120.43991088867188" height="31" opacity="0.2"/></g><g transform="translate(-174,-94) scale(1,1)"><rect fill="#ffffff" stroke="none" x="688" y="176" width="120.43991088867188" height="31"/></g><g transform="translate(-174,-94) scale(1,1)"><path fill="none" stroke="#000000" d="M 688 176 L 808.4399108886719 176 L 808.4399108886719 207 L 688 207 L 688 176 Z Z" stroke-miterlimit="10"/></g><g transform="translate(-174,-94) scale(1,1)"><rect fill="#ffffff" stroke="none" x="688" y="176" width="120.43991088867188" height="31"/></g><g transform="translate(-174,-94) scale(1,1)"><path fill="none" stroke="#000000" d="M 688 176 L 808.4399108886719 176 L 808.4399108886719 207 L 688 207 L 688 176 Z Z" stroke-miterlimit="10"/></g><g transform="translate(-174,-94) scale(1,1)"><g><path fill="none" stroke="none"/><text fill="#000000" stroke="none" font-family="PT Sans" font-size="20px" font-style="normal" font-weight="bold" text-decoration="none" x="711.3799819946289" y="202.5">Nummer</text></g></g><g transform="translate(-174,-94) scale(1,1)"><path fill="none" stroke="#000000" d="M 516 303 L 560 303" stroke-miterlimit="10"/></g><g transform="translate(-174,-94) scale(1,1)"><path fill="none" stroke="#000000" d="M 549.8373251423759 307.209517756016 L 560 303 L 549.8373251423758 298.790482243984" stroke-miterlimit="10"/></g><g transform="translate(-174,-94) scale(1,1)"><rect fill="#C0C0C0" stroke="none" x="567" y="295" width="120.43991088867188" height="31" opacity="0.2"/></g><g transform="translate(-174,-94) scale(1,1)"><rect fill="#ffffff" stroke="none" x="560" y="288" width="120.43991088867188" height="31"/></g><g transform="translate(-174,-94) scale(1,1)"><path fill="none" stroke="#000000" d="M 560 288 L 680.4399108886719 288 L 680.4399108886719 319 L 560 319 L 560 288 Z Z" stroke-miterlimit="10"/></g><g transform="translate(-174,-94) scale(1,1)"><rect fill="#ffffff" stroke="none" x="560" y="288" width="120.43991088867188" height="31"/></g><g transform="translate(-174,-94) scale(1,1)"><path fill="none" stroke="#000000" d="M 560 288 L 680.4399108886719 288 L 680.4399108886719 319 L 560 319 L 560 288 Z Z" stroke-miterlimit="10"/></g><g transform="translate(-174,-94) scale(1,1)"><g><path fill="none" stroke="none"/><text fill="#000000" stroke="none" font-family="PT Sans" font-size="20px" font-style="normal" font-weight="bold" text-decoration="none" x="583.0399856567383" y="314.5">Merkmal</text></g></g><g transform="translate(-174,-94) scale(1,1)"><path fill="none" stroke="#000000" d="M 680 296 L 720 296" stroke-miterlimit="10"/></g><g transform="translate(-174,-94) scale(1,1)"><path fill="none" stroke="#000000" d="M 709.8373251423759 300.209517756016 L 720 296 L 709.8373251423758 291.790482243984" stroke-miterlimit="10"/></g><g transform="translate(-174,-94) scale(1,1)"><path fill="none" stroke="#000000" d="M 752 207 L 752 264" stroke-miterlimit="10"/></g><g transform="translate(-174,-94) scale(1,1)"><path fill="none" stroke="#000000" d="M 747.790482243984 253.83732514237585 L 752 264 L 756.209517756016 253.83732514237585" stroke-miterlimit="10"/></g><g transform="translate(-174,-94) scale(1,1)"><path fill="none" stroke="#000000" d="M 784 296 L 920 296" stroke-miterlimit="10"/></g><g transform="translate(-174,-94) scale(1,1)"><path fill="none" stroke="#000000" d="M 909.8373251423759 300.209517756016 L 920 296 L 909.8373251423758 291.790482243984" stroke-miterlimit="10"/></g><g transform="translate(-174,-94) scale(1,1)"><path fill="none" stroke="#000000" d="M 1079 296 L 1088 296 L 1088 360" stroke-miterlimit="10"/></g><g transform="translate(-174,-94) scale(1,1)"><path fill="none" stroke="#000000" d="M 1083.7904822439841 349.83732514237585 L 1088 360 L 1092.2095177560159 349.83732514237585" stroke-miterlimit="10"/></g><g transform="translate(-174,-94) scale(1,1)"><path fill="none" stroke="#000000" d="M 1088 424 L 1088 528 L 1063 528" stroke-miterlimit="10"/></g><g transform="translate(-174,-94) scale(1,1)"><path fill="none" stroke="#000000" d="M 1073.162674857624 523.790482243984 L 1063 528 L 1073.162674857624 532.209517756016" stroke-miterlimit="10"/></g><g transform="translate(-174,-94) scale(1,1)"><g><path fill="none" stroke="none"/><text fill="#000000" stroke="none" font-family="PT Sans" font-size="20px" font-style="normal" font-weight="normal" text-decoration="none" x="973.1999969482422" y="465.5">[erfolgreich]</text></g></g><g transform="translate(-174,-94) scale(1,1)"><path fill="#C0C0C0" stroke="none" d="M 727 303.5 L 759.5 271 L 791 303.5 L 759.5 335 L 727 303.5" opacity="0.2"/></g><g transform="translate(-174,-94) scale(1,1)"><path fill="#ffffff" stroke="none" d="M 720 296 L 752 264 L 784 296 L 752 328 L 720 296"/></g><g transform="translate(-174,-94) scale(1,1)"><path fill="none" stroke="#000000" d="M 720 296 L 752 264 L 784 296 L 752 328 L 720 296 L 720 296" stroke-miterlimit="10"/></g><g transform="translate(-174,-94) scale(1,1)"><path fill="#C0C0C0" stroke="none" d="M 937 271 L 1076 271 Q 1086 271 1086 281 L 1086 317 Q 1086 327 1076 327 L 937 327 Q 927 327 927 317 L 927 281 Q 927 271 937 271 Z" opacity="0.2"/></g><g transform="translate(-174,-94) scale(1,1)"><path fill="#ffffff" stroke="none" d="M 930 264 L 1069 264 Q 1079 264 1079 274 L 1079 310 Q 1079 320 1069 320 L 930 320 Q 920 320 920 310 L 920 274 Q 920 264 930 264 Z"/></g><g transform="translate(-174,-94) scale(1,1)"><path fill="none" stroke="#000000" d="M 930 264 L 1069 264 Q 1079 264 1079 274 L 1079 310 Q 1079 320 1069 320 L 930 320 Q 920 320 920 310 L 920 274 Q 920 264 930 264 Z" stroke-miterlimit="10"/></g><g transform="translate(-174,-94) scale(1,1)"><g><path fill="none" stroke="none"/><text fill="#000000" stroke="none" font-family="PT Sans" font-size="20px" font-style="normal" font-weight="bold" text-decoration="none" x="971.5600280761719" y="290.5">prüfen</text></g></g><g transform="translate(-174,-94) scale(1,1)"><path fill="#C0C0C0" stroke="none" d="M 1063 399.5 L 1095.5 367 L 1127 399.5 L 1095.5 431 L 1063 399.5" opacity="0.2"/></g><g transform="translate(-174,-94) scale(1,1)"><path fill="#ffffff" stroke="none" d="M 1056 392 L 1088 360 L 1120 392 L 1088 424 L 1056 392"/></g><g transform="translate(-174,-94) scale(1,1)"><path fill="none" stroke="#000000" d="M 1056 392 L 1088 360 L 1120 392 L 1088 424 L 1056 392 L 1056 392" stroke-miterlimit="10"/></g><g transform="translate(-174,-94) scale(1,1)"><path fill="#C0C0C0" stroke="none" d="M 937 511 L 1060 511 Q 1070 511 1070 521 L 1070 557 Q 1070 567 1060 567 L 937 567 Q 927 567 927 557 L 927 521 Q 927 511 937 511 Z" opacity="0.2"/></g><g transform="translate(-174,-94) scale(1,1)"><path fill="#ffffff" stroke="none" d="M 930 504 L 1053 504 Q 1063 504 1063 514 L 1063 550 Q 1063 560 1053 560 L 930 560 Q 920 560 920 550 L 920 514 Q 920 504 930 504 Z"/></g><g transform="translate(-174,-94) scale(1,1)"><path fill="none" stroke="#000000" d="M 930 504 L 1053 504 Q 1063 504 1063 514 L 1063 550 Q 1063 560 1053 560 L 930 560 Q 920 560 920 550 L 920 514 Q 920 504 930 504 Z" stroke-miterlimit="10"/></g><g transform="translate(-174,-94) scale(1,1)"><g><path fill="none" stroke="none"/><text fill="#000000" stroke="none" font-family="PT Sans" font-size="20px" font-style="normal" font-weight="bold" text-decoration="none" x="946.7600555419922" y="530.5">Tor öffnen</text></g></g><g transform="translate(-174,-94) scale(1,1)"><path fill="none" stroke="#000000" d="M 736 560 L 736 624" stroke-miterlimit="10"/></g><g transform="translate(-174,-94) scale(1,1)"><path fill="none" stroke="#000000" d="M 731.790482243984 613.8373251423759 L 736 624 L 740.209517756016 613.8373251423759" stroke-miterlimit="10"/></g><g transform="translate(-174,-94) scale(1,1)"><path fill="#C0C0C0" stroke="none" d="M 673 631 L 811.0798645019531 631 Q 821.0798645019531 631 821.0798645019531 641 L 821.0798645019531 677 Q 821.0798645019531 687 811.0798645019531 687 L 673 687 Q 663 687 663 677 L 663 641 Q 663 631 673 631 Z" opacity="0.2"/></g><g transform="translate(-174,-94) scale(1,1)"><path fill="#ffffff" stroke="none" d="M 666 624 L 804.0798645019531 624 Q 814.0798645019531 624 814.0798645019531 634 L 814.0798645019531 670 Q 814.0798645019531 680 804.0798645019531 680 L 666 680 Q 656 680 656 670 L 656 634 Q 656 624 666 624 Z"/></g><g transform="translate(-174,-94) scale(1,1)"><path fill="none" stroke="#000000" d="M 666 624 L 804.0798645019531 624 Q 814.0798645019531 624 814.0798645019531 634 L 814.0798645019531 670 Q 814.0798645019531 680 804.0798645019531 680 L 666 680 Q 656 680 656 670 L 656 634 Q 656 624 666 624 Z" stroke-miterlimit="10"/></g><g transform="translate(-174,-94) scale(1,1)"><g><path fill="none" stroke="none"/><text fill="#000000" stroke="none" font-family="PT Sans" font-size="20px" font-style="normal" font-weight="bold" text-decoration="none" x="660.4400100708008" y="650.5">Zeit x verstrichen</text></g></g><g transform="translate(-174,-94) scale(1,1)"><path fill="#C0C0C0" stroke="none" d="M 665 511 L 819.4998474121094 511 Q 829.4998474121094 511 829.4998474121094 521 L 829.4998474121094 557 Q 829.4998474121094 567 819.4998474121094 567 L 665 567 Q 655 567 655 557 L 655 521 Q 655 511 665 511 Z" opacity="0.2"/></g><g transform="translate(-174,-94) scale(1,1)"><path fill="#ffffff" stroke="none" d="M 658 504 L 812.4998474121094 504 Q 822.4998474121094 504 822.4998474121094 514 L 822.4998474121094 550 Q 822.4998474121094 560 812.4998474121094 560 L 658 560 Q 648 560 648 550 L 648 514 Q 648 504 658 504 Z"/></g><g transform="translate(-174,-94) scale(1,1)"><path fill="none" stroke="#000000" d="M 658 504 L 812.4998474121094 504 Q 822.4998474121094 504 822.4998474121094 514 L 822.4998474121094 550 Q 822.4998474121094 560 812.4998474121094 560 L 658 560 Q 648 560 648 550 L 648 514 Q 648 504 658 504 Z" stroke-miterlimit="10"/></g><g transform="translate(-174,-94) scale(1,1)"><g><path fill="none" stroke="none"/><text fill="#000000" stroke="none" font-family="PT Sans" font-size="20px" font-style="normal" font-weight="bold" text-decoration="none" x="677.5999755859375" y="530.5">Karte sperren</text></g></g><g transform="translate(-174,-94) scale(1,1)"><path fill="none" stroke="#000000" d="M 920 532 L 822 532" stroke-miterlimit="10"/></g><g transform="translate(-174,-94) scale(1,1)"><path fill="none" stroke="#000000" d="M 832.1626748576241 527.790482243984 L 822 532 L 832.1626748576241 536.209517756016" stroke-miterlimit="10"/></g><g transform="translate(-174,-94) scale(1,1)"><path fill="none" stroke="#000000" d="M 814 647 L 904 647" stroke-miterlimit="10"/></g><g transform="translate(-174,-94) scale(1,1)"><path fill="none" stroke="#000000" d="M 893.8373251423759 651.209517756016 L 904 647 L 893.8373251423758 642.790482243984" stroke-miterlimit="10"/></g><g transform="translate(-174,-94) scale(1,1)"><path fill="#C0C0C0" stroke="none" d="M 921 631 L 1082.6598510742188 631 Q 1092.6598510742188 631 1092.6598510742188 641 L 1092.6598510742188 677 Q 1092.6598510742188 687 1082.6598510742188 687 L 921 687 Q 911 687 911 677 L 911 641 Q 911 631 921 631 Z" opacity="0.2"/></g><g transform="translate(-174,-94) scale(1,1)"><path fill="#ffffff" stroke="none" d="M 914 624 L 1075.6598510742188 624 Q 1085.6598510742188 624 1085.6598510742188 634 L 1085.6598510742188 670 Q 1085.6598510742188 680 1075.6598510742188 680 L 914 680 Q 904 680 904 670 L 904 634 Q 904 624 914 624 Z"/></g><g transform="translate(-174,-94) scale(1,1)"><path fill="none" stroke="#000000" d="M 914 624 L 1075.6598510742188 624 Q 1085.6598510742188 624 1085.6598510742188 634 L 1085.6598510742188 670 Q 1085.6598510742188 680 1075.6598510742188 680 L 914 680 Q 904 680 904 670 L 904 634 Q 904 624 914 624 Z" stroke-miterlimit="10"/></g><g transform="translate(-174,-94) scale(1,1)"><g><path fill="none" stroke="none"/><text fill="#000000" stroke="none" font-family="PT Sans" font-size="20px" font-style="normal" font-weight="bold" text-decoration="none" x="923.239990234375" y="650.5">Karte entsperren</text></g></g><g transform="translate(-174,-94) scale(1,1)"><path fill="#C0C0C0" stroke="none" d="M 661.9601287841797 375 L 813 375 Q 823 375 823 385 L 823 421 Q 823 431 813 431 L 661.9601287841797 431 Q 651.9601287841797 431 651.9601287841797 421 L 651.9601287841797 385 Q 651.9601287841797 375 661.9601287841797 375 Z" opacity="0.2"/></g><g transform="translate(-174,-94) scale(1,1)"><path fill="#ffffff" stroke="none" d="M 654.9601287841797 368 L 806 368 Q 816 368 816 378 L 816 414 Q 816 424 806 424 L 654.9601287841797 424 Q 644.9601287841797 424 644.9601287841797 414 L 644.9601287841797 378 Q 644.9601287841797 368 654.9601287841797 368 Z"/></g><g transform="translate(-174,-94) scale(1,1)"><path fill="none" stroke="#000000" d="M 654.9601287841797 368 L 806 368 Q 816 368 816 378 L 816 414 Q 816 424 806 424 L 654.9601287841797 424 Q 644.9601287841797 424 644.9601287841797 414 L 644.9601287841797 378 Q 644.9601287841797 368 654.9601287841797 368 Z" stroke-miterlimit="10"/></g><g transform="translate(-174,-94) scale(1,1)"><g><path fill="none" stroke="none"/><text fill="#000000" stroke="none" font-family="PT Sans" font-size="20px" font-style="normal" font-weight="bold" text-decoration="none" x="649.3301239013672" y="394.5">Meldung ausgeben</text></g></g><g transform="translate(-174,-94) scale(1,1)"><path fill="none" stroke="#000000" d="M 1056 392 L 816 392" stroke-miterlimit="10"/></g><g transform="translate(-174,-94) scale(1,1)"><path fill="none" stroke="#000000" d="M 826.1626748576241 387.790482243984 L 816 392 L 826.1626748576241 396.209517756016" stroke-miterlimit="10"/></g><g transform="translate(-174,-94) scale(1,1)"><g><path fill="none" stroke="none"/><text fill="#000000" stroke="none" font-family="PT Sans" font-size="20px" font-style="normal" font-weight="normal" text-decoration="none" x="868.1999969482422" y="416.5">[nicht erfolgreich]</text></g></g><g transform="translate(-174,-94) scale(1,1)"><path fill="#C0C0C0" stroke="none" d="M 575 403.5 C 575 396.59644 580.59644 391 587.5 391 C 594.40356 391 600 396.59644 600 403.5 C 600 410.40356 594.40356 416 587.5 416 C 580.59644 416 575 410.40356 575 403.5 Z" opacity="0.2"/></g><g transform="translate(-174,-94) scale(1,1)"><path fill="#ffffff" stroke="none" d="M 568 396.5 C 568 389.59644 573.59644 384 580.5 384 C 587.40356 384 593 389.59644 593 396.5 C 593 403.40356 587.40356 409 580.5 409 C 573.59644 409 568 403.40356 568 396.5 Z"/></g><g transform="translate(-174,-94) scale(1,1)"><path fill="none" stroke="#000000" d="M 568 396.5 C 568 389.59644 573.59644 384 580.5 384 C 587.40356 384 593 389.59644 593 396.5 C 593 403.40356 587.40356 409 580.5 409 C 573.59644 409 568 403.40356 568 396.5 Z" stroke-miterlimit="10"/></g><g transform="translate(-174,-94) scale(1,1)"><path fill="none" stroke="#000000" d="M 571 387 L 589 405" stroke-miterlimit="10"/></g><g transform="translate(-174,-94) scale(1,1)"><path fill="none" stroke="#000000" d="M 589 387 L 571 405" stroke-miterlimit="10"/></g><g transform="translate(-174,-94) scale(1,1)"><path fill="#C0C0C0" stroke="none" d="M 1159 659.5 C 1159 652.59644 1164.59644 647 1171.5 647 C 1178.40356 647 1184 652.59644 1184 659.5 C 1184 666.40356 1178.40356 672 1171.5 672 C 1164.59644 672 1159 666.40356 1159 659.5 Z" opacity="0.2"/></g><g transform="translate(-174,-94) scale(1,1)"><path fill="#ffffff" stroke="none" d="M 1152 652.5 C 1152 645.59644 1157.59644 640 1164.5 640 C 1171.40356 640 1177 645.59644 1177 652.5 C 1177 659.40356 1171.40356 665 1164.5 665 C 1157.59644 665 1152 659.40356 1152 652.5 Z"/></g><g transform="translate(-174,-94) scale(1,1)"><path fill="none" stroke="#000000" d="M 1152 652.5 C 1152 645.59644 1157.59644 640 1164.5 640 C 1171.40356 640 1177 645.59644 1177 652.5 C 1177 659.40356 1171.40356 665 1164.5 665 C 1157.59644 665 1152 659.40356 1152 652.5 Z" stroke-miterlimit="10"/></g><g transform="translate(-174,-94) scale(1,1)"><path fill="none" stroke="#000000" d="M 1155 643 L 1173 661" stroke-miterlimit="10"/></g><g transform="translate(-174,-94) scale(1,1)"><path fill="none" stroke="#000000" d="M 1173 643 L 1155 661" stroke-miterlimit="10"/></g><g transform="translate(-174,-94) scale(1,1)"><path fill="none" stroke="#000000" d="M 645 396 L 593 396" stroke-miterlimit="10"/></g><g transform="translate(-174,-94) scale(1,1)"><path fill="none" stroke="#000000" d="M 603.1626748576241 391.790482243984 L 593 396 L 603.1626748576241 400.209517756016" stroke-miterlimit="10"/></g><g transform="translate(-174,-94) scale(1,1)"><path fill="none" stroke="#000000" d="M 1086 652 L 1152 652" stroke-miterlimit="10"/></g><g transform="translate(-174,-94) scale(1,1)"><path fill="none" stroke="#000000" d="M 1141.837325142376 656.209517756016 L 1152 652 L 1141.837325142376 647.790482243984" stroke-miterlimit="10"/></g></g></svg>