<svg version="1.1" xmlns="http://www.w3.org/2000/svg" xmlns:xlink="http://www.w3.org/1999/xlink" width="789" height="628"><defs/><g><g transform="translate(-198,-110) scale(1,1)"><rect fill="#ffffff" stroke="none" x="256" y="120" width="304" height="28"/></g><g transform="translate(-198,-110) scale(1,1)"><path fill="none" stroke="#000000" d="M 256 120 L 560 120 L 560 148 L 256 148 L 256 120 Z Z" stroke-miterlimit="10" stroke-width="2"/></g><g transform="translate(-198,-110) scale(1,1)"><path fill="none" stroke="#000000" d="M 256 728 L 256 120 L 560 120 L 560 728" stroke-miterlimit="10" stroke-width="2"/></g><g transform="translate(-198,-110) scale(1,1)"><g><path fill="none" stroke="none"/><text fill="#000000" stroke="none" font-family="PT Sans" font-size="20px" font-style="normal" font-weight="normal" text-decoration="none" x="364.92003631591797" y="144">Anwender</text></g></g><g transform="translate(-198,-110) scale(1,1)"><path fill="#C0C0C0" stroke="none" d="M 289 175 L 541.2398071289062 175 Q 551.2398071289062 175 551.2398071289062 185 L 551.2398071289062 221 Q 551.2398071289062 231 541.2398071289062 231 L 289 231 Q 279 231 279 221 L 279 185 Q 279 175 289 175 Z" opacity="0.2"/></g><g transform="translate(-198,-110) scale(1,1)"><path fill="#ffffff" stroke="none" d="M 282 168 L 534.2398071289062 168 Q 544.2398071289062 168 544.2398071289062 178 L 544.2398071289062 214 Q 544.2398071289062 224 534.2398071289062 224 L 282 224 Q 272 224 272 214 L 272 178 Q 272 168 282 168 Z"/></g><g transform="translate(-198,-110) scale(1,1)"><path fill="none" stroke="#000000" d="M 282 168 L 534.2398071289062 168 Q 544.2398071289062 168 544.2398071289062 178 L 544.2398071289062 214 Q 544.2398071289062 224 534.2398071289062 224 L 282 224 Q 272 224 272 214 L 272 178 Q 272 168 282 168 Z" stroke-miterlimit="10"/></g><g transform="translate(-198,-110) scale(1,1)"><g><path fill="none" stroke="none"/><text fill="#000000" stroke="none" font-family="PT Sans" font-size="20px" font-style="normal" font-weight="bold" text-decoration="none" x="318.7199935913086" y="194.5">Anwender checkt ein</text></g></g><g transform="translate(-198,-110) scale(1,1)"><rect fill="#ffffff" stroke="none" x="560" y="120" width="376" height="28"/></g><g transform="translate(-198,-110) scale(1,1)"><path fill="none" stroke="#000000" d="M 560 120 L 936 120 L 936 148 L 560 148 L 560 120 Z Z" stroke-miterlimit="10" stroke-width="2"/></g><g transform="translate(-198,-110) scale(1,1)"><path fill="none" stroke="#000000" d="M 560 728 L 560 120 L 936 120 L 936 728" stroke-miterlimit="10" stroke-width="2"/></g><g transform="translate(-198,-110) scale(1,1)"><g><path fill="none" stroke="none"/><text fill="#000000" stroke="none" font-family="PT Sans" font-size="20px" font-style="normal" font-weight="normal" text-decoration="none" x="717.2300186157227" y="144">System</text></g></g><g transform="translate(-198,-110) scale(1,1)"><path fill="none" stroke="#000000" d="M 228 193 L 271 194" stroke-miterlimit="10"/></g><g transform="translate(-198,-110) scale(1,1)"><path fill="none" stroke="#000000" d="M 260.7422028826507 197.97210250362454 L 271 194 L 260.9379414824055 189.55534271416747" stroke-miterlimit="10"/></g><g transform="translate(-198,-110) scale(1,1)"><path fill="#C0C0C0" stroke="none" d="M 215 200.5 C 215 195.2532944 219.2532944 191 224.5 191 C 229.7467056 191 234 195.2532944 234 200.5 C 234 205.7467056 229.7467056 210 224.5 210 C 219.2532944 210 215 205.7467056 215 200.5 Z" opacity="0.2"/></g><g transform="translate(-198,-110) scale(1,1)"><path fill="#000000" stroke="none" d="M 208 193.5 C 208 188.2532944 212.2532944 184 217.5 184 C 222.7467056 184 227 188.2532944 227 193.5 C 227 198.7467056 222.7467056 203 217.5 203 C 212.2532944 203 208 198.7467056 208 193.5 Z"/></g><g transform="translate(-198,-110) scale(1,1)"><path fill="#C0C0C0" stroke="none" d="M 673 271 L 827.4998474121094 271 Q 837.4998474121094 271 837.4998474121094 281 L 837.4998474121094 317 Q 837.4998474121094 327 827.4998474121094 327 L 673 327 Q 663 327 663 317 L 663 281 Q 663 271 673 271 Z" opacity="0.2"/></g><g transform="translate(-198,-110) scale(1,1)"><path fill="#ffffff" stroke="none" d="M 666 264 L 820.4998474121094 264 Q 830.4998474121094 264 830.4998474121094 274 L 830.4998474121094 310 Q 830.4998474121094 320 820.4998474121094 320 L 666 320 Q 656 320 656 310 L 656 274 Q 656 264 666 264 Z"/></g><g transform="translate(-198,-110) scale(1,1)"><path fill="none" stroke="#000000" d="M 666 264 L 820.4998474121094 264 Q 830.4998474121094 264 830.4998474121094 274 L 830.4998474121094 310 Q 830.4998474121094 320 820.4998474121094 320 L 666 320 Q 656 320 656 310 L 656 274 Q 656 264 666 264 Z" stroke-miterlimit="10"/></g><g transform="translate(-198,-110) scale(1,1)"><g><path fill="none" stroke="none"/><text fill="#000000" stroke="none" font-family="PT Sans" font-size="20px" font-style="normal" font-weight="bold" text-decoration="none" x="685.5999755859375" y="290.5">Karte sperren</text></g></g><g transform="translate(-198,-110) scale(1,1)"><path fill="#C0C0C0" stroke="none" d="M 959 299.5 C 959 292.59644 964.59644 287 971.5 287 C 978.40356 287 984 292.59644 984 299.5 C 984 306.40356 978.40356 312 971.5 312 C 964.59644 312 959 306.40356 959 299.5 Z" opacity="0.2"/></g><g transform="translate(-198,-110) scale(1,1)"><path fill="#ffffff" stroke="none" d="M 952 292.5 C 952 285.59644 957.59644 280 964.5 280 C 971.40356 280 977 285.59644 977 292.5 C 977 299.40356 971.40356 305 964.5 305 C 957.59644 305 952 299.40356 952 292.5 Z"/></g><g transform="translate(-198,-110) scale(1,1)"><path fill="none" stroke="#000000" d="M 952 292.5 C 952 285.59644 957.59644 280 964.5 280 C 971.40356 280 977 285.59644 977 292.5 C 977 299.40356 971.40356 305 964.5 305 C 957.59644 305 952 299.40356 952 292.5 Z" stroke-miterlimit="10"/></g><g transform="translate(-198,-110) scale(1,1)"><path fill="none" stroke="#000000" d="M 955 283 L 973 301" stroke-miterlimit="10"/></g><g transform="translate(-198,-110) scale(1,1)"><path fill="none" stroke="#000000" d="M 973 283 L 955 301" stroke-miterlimit="10"/></g><g transform="translate(-198,-110) scale(1,1)"><path fill="none" stroke="#000000" d="M 830 292 L 952 292" stroke-miterlimit="10"/></g><g transform="translate(-198,-110) scale(1,1)"><path fill="none" stroke="#000000" d="M 941.8373251423759 296.209517756016 L 952 292 L 941.8373251423758 287.790482243984" stroke-miterlimit="10"/></g><g transform="translate(-198,-110) scale(1,1)"><path fill="none" stroke="#000000" d="M 397 224 L 397 280" stroke-miterlimit="10"/></g><g transform="translate(-198,-110) scale(1,1)"><path fill="none" stroke="#000000" d="M 392.790482243984 269.83732514237585 L 397 280 L 401.209517756016 269.83732514237585" stroke-miterlimit="10"/></g><g transform="translate(-198,-110) scale(1,1)"><path fill="#C0C0C0" stroke="none" d="M 313 287 L 503.13983154296875 287 Q 513.1398315429688 287 513.1398315429688 297 L 513.1398315429688 333 Q 513.1398315429688 343 503.13983154296875 343 L 313 343 Q 303 343 303 333 L 303 297 Q 303 287 313 287 Z" opacity="0.2"/></g><g transform="translate(-198,-110) scale(1,1)"><path fill="#ffffff" stroke="none" d="M 306 280 L 496.13983154296875 280 Q 506.13983154296875 280 506.13983154296875 290 L 506.13983154296875 326 Q 506.13983154296875 336 496.13983154296875 336 L 306 336 Q 296 336 296 326 L 296 290 Q 296 280 306 280 Z"/></g><g transform="translate(-198,-110) scale(1,1)"><path fill="none" stroke="#000000" d="M 306 280 L 496.13983154296875 280 Q 506.13983154296875 280 506.13983154296875 290 L 506.13983154296875 326 Q 506.13983154296875 336 496.13983154296875 336 L 306 336 Q 296 336 296 326 L 296 290 Q 296 280 306 280 Z" stroke-miterlimit="10"/></g><g transform="translate(-198,-110) scale(1,1)"><g><path fill="none" stroke="none"/><text fill="#000000" stroke="none" font-family="PT Sans" font-size="20px" font-style="normal" font-weight="bold" text-decoration="none" x="300.9199905395508" y="306.5">Anwender verlässt Park</text></g></g><g transform="translate(-198,-110) scale(1,1)"><path fill="#C0C0C0" stroke="none" d="M 375 423.5 L 407.5 391 L 439 423.5 L 407.5 455 L 375 423.5" opacity="0.2"/></g><g transform="translate(-198,-110) scale(1,1)"><path fill="#ffffff" stroke="none" d="M 368 416 L 400 384 L 432 416 L 400 448 L 368 416"/></g><g transform="translate(-198,-110) scale(1,1)"><path fill="none" stroke="#000000" d="M 368 416 L 400 384 L 432 416 L 400 448 L 368 416 L 368 416" stroke-miterlimit="10"/></g><g transform="translate(-198,-110) scale(1,1)"><path fill="none" stroke="#000000" d="M 400 336 L 400 384" stroke-miterlimit="10"/></g><g transform="translate(-198,-110) scale(1,1)"><path fill="none" stroke="#000000" d="M 395.790482243984 373.83732514237585 L 400 384 L 404.209517756016 373.83732514237585" stroke-miterlimit="10"/></g><g transform="translate(-198,-110) scale(1,1)"><path fill="#C0C0C0" stroke="none" d="M 673 487 L 834.6598510742188 487 Q 844.6598510742188 487 844.6598510742188 497 L 844.6598510742188 533 Q 844.6598510742188 543 834.6598510742188 543 L 673 543 Q 663 543 663 533 L 663 497 Q 663 487 673 487 Z" opacity="0.2"/></g><g transform="translate(-198,-110) scale(1,1)"><path fill="#ffffff" stroke="none" d="M 666 480 L 827.6598510742188 480 Q 837.6598510742188 480 837.6598510742188 490 L 837.6598510742188 526 Q 837.6598510742188 536 827.6598510742188 536 L 666 536 Q 656 536 656 526 L 656 490 Q 656 480 666 480 Z"/></g><g transform="translate(-198,-110) scale(1,1)"><path fill="none" stroke="#000000" d="M 666 480 L 827.6598510742188 480 Q 837.6598510742188 480 837.6598510742188 490 L 837.6598510742188 526 Q 837.6598510742188 536 827.6598510742188 536 L 666 536 Q 656 536 656 526 L 656 490 Q 656 480 666 480 Z" stroke-miterlimit="10"/></g><g transform="translate(-198,-110) scale(1,1)"><g><path fill="none" stroke="none"/><text fill="#000000" stroke="none" font-family="PT Sans" font-size="20px" font-style="normal" font-weight="bold" text-decoration="none" x="675.239990234375" y="506.5">Karte entsperren</text></g></g><g transform="translate(-198,-110) scale(1,1)"><path fill="none" stroke="#000000" d="M 400 448 L 400 596 L 632 596" stroke-miterlimit="10"/></g><g transform="translate(-198,-110) scale(1,1)"><path fill="none" stroke="#000000" d="M 621.8373251423759 600.209517756016 L 632 596 L 621.8373251423758 591.790482243984" stroke-miterlimit="10"/></g><g transform="translate(-198,-110) scale(1,1)"><g><path fill="none" stroke="none"/><text fill="#000000" stroke="none" font-family="PT Sans" font-size="20px" font-style="normal" font-weight="normal" text-decoration="none" x="302.1999969482422" y="617.5">[Anwender checkt nicht aus]</text></g></g><g transform="translate(-198,-110) scale(1,1)"><path fill="#C0C0C0" stroke="none" d="M 649 575 L 850.1198272705078 575 Q 860.1198272705078 575 860.1198272705078 585 L 860.1198272705078 621 Q 860.1198272705078 631 850.1198272705078 631 L 649 631 Q 639 631 639 621 L 639 585 Q 639 575 649 575 Z" opacity="0.2"/></g><g transform="translate(-198,-110) scale(1,1)"><path fill="#ffffff" stroke="none" d="M 642 568 L 843.1198272705078 568 Q 853.1198272705078 568 853.1198272705078 578 L 853.1198272705078 614 Q 853.1198272705078 624 843.1198272705078 624 L 642 624 Q 632 624 632 614 L 632 578 Q 632 568 642 568 Z"/></g><g transform="translate(-198,-110) scale(1,1)"><path fill="none" stroke="#000000" d="M 642 568 L 843.1198272705078 568 Q 853.1198272705078 568 853.1198272705078 578 L 853.1198272705078 614 Q 853.1198272705078 624 843.1198272705078 624 L 642 624 Q 632 624 632 614 L 632 578 Q 632 568 642 568 Z" stroke-miterlimit="10"/></g><g transform="translate(-198,-110) scale(1,1)"><g><path fill="none" stroke="none"/><text fill="#000000" stroke="none" font-family="PT Sans" font-size="20px" font-style="normal" font-weight="bold" text-decoration="none" x="636.5300216674805" y="594.5">Zeitpunkt x wird erreicht</text></g></g><g transform="translate(-198,-110) scale(1,1)"><path fill="none" stroke="#000000" d="M 544 191 L 664 191" stroke-miterlimit="10"/></g><g transform="translate(-198,-110) scale(1,1)"><path fill="none" stroke="#000000" d="M 653.8373251423759 195.209517756016 L 664 191 L 653.8373251423758 186.790482243984" stroke-miterlimit="10"/></g><g transform="translate(-198,-110) scale(1,1)"><rect fill="#C0C0C0" stroke="none" x="671" y="183" width="137.41990661621094" height="31" opacity="0.2"/></g><g transform="translate(-198,-110) scale(1,1)"><rect fill="#ffffff" stroke="none" x="664" y="176" width="137.41990661621094" height="31"/></g><g transform="translate(-198,-110) scale(1,1)"><path fill="none" stroke="#000000" d="M 664 176 L 801.4199066162109 176 L 801.4199066162109 207 L 664 207 L 664 176 Z Z" stroke-miterlimit="10"/></g><g transform="translate(-198,-110) scale(1,1)"><rect fill="#ffffff" stroke="none" x="664" y="176" width="137.41990661621094" height="31"/></g><g transform="translate(-198,-110) scale(1,1)"><path fill="none" stroke="#000000" d="M 664 176 L 801.4199066162109 176 L 801.4199066162109 207 L 664 207 L 664 176 Z Z" stroke-miterlimit="10"/></g><g transform="translate(-198,-110) scale(1,1)"><g><path fill="none" stroke="none"/><text fill="#000000" stroke="none" font-family="PT Sans" font-size="20px" font-style="normal" font-weight="bold" text-decoration="none" x="668.7300033569336" y="202.5">Kartennummer</text></g></g><g transform="translate(-198,-110) scale(1,1)"><path fill="none" stroke="#000000" d="M 734 207 L 734 264" stroke-miterlimit="10"/></g><g transform="translate(-198,-110) scale(1,1)"><path fill="none" stroke="#000000" d="M 729.790482243984 253.83732514237585 L 734 264 L 738.209517756016 253.83732514237585" stroke-miterlimit="10"/></g><g transform="translate(-198,-110) scale(1,1)"><path fill="none" stroke="#000000" d="M 432 416 L 664 416" stroke-miterlimit="10"/></g><g transform="translate(-198,-110) scale(1,1)"><path fill="none" stroke="#000000" d="M 653.8373251423759 420.209517756016 L 664 416 L 653.8373251423758 411.790482243984" stroke-miterlimit="10"/></g><g transform="translate(-198,-110) scale(1,1)"><g><path fill="none" stroke="none"/><text fill="#000000" stroke="none" font-family="PT Sans" font-size="20px" font-style="normal" font-weight="normal" text-decoration="none" x="439.5" y="408.5">[Anwender checkt aus]</text></g></g><g transform="translate(-198,-110) scale(1,1)"><rect fill="#C0C0C0" stroke="none" x="671" y="415" width="137.41990661621094" height="31" opacity="0.2"/></g><g transform="translate(-198,-110) scale(1,1)"><rect fill="#ffffff" stroke="none" x="664" y="408" width="137.41990661621094" height="31"/></g><g transform="translate(-198,-110) scale(1,1)"><path fill="none" stroke="#000000" d="M 664 408 L 801.4199066162109 408 L 801.4199066162109 439 L 664 439 L 664 408 Z Z" stroke-miterlimit="10"/></g><g transform="translate(-198,-110) scale(1,1)"><rect fill="#ffffff" stroke="none" x="664" y="408" width="137.41990661621094" height="31"/></g><g transform="translate(-198,-110) scale(1,1)"><path fill="none" stroke="#000000" d="M 664 408 L 801.4199066162109 408 L 801.4199066162109 439 L 664 439 L 664 408 Z Z" stroke-miterlimit="10"/></g><g transform="translate(-198,-110) scale(1,1)"><g><path fill="none" stroke="none"/><text fill="#000000" stroke="none" font-family="PT Sans" font-size="20px" font-style="normal" font-weight="bold" text-decoration="none" x="668.7300033569336" y="434.5">Kartennummer</text></g></g><g transform="translate(-198,-110) scale(1,1)"><path fill="none" stroke="#000000" d="M 735 439 L 735 480" stroke-miterlimit="10"/></g><g transform="translate(-198,-110) scale(1,1)"><path fill="none" stroke="#000000" d="M 730.790482243984 469.83732514237585 L 735 480 L 739.209517756016 469.83732514237585" stroke-miterlimit="10"/></g><g transform="translate(-198,-110) scale(1,1)"><path fill="#C0C0C0" stroke="none" d="M 959 515.5 C 959 508.59644 964.59644 503 971.5 503 C 978.40356 503 984 508.59644 984 515.5 C 984 522.40356 978.40356 528 971.5 528 C 964.59644 528 959 522.40356 959 515.5 Z" opacity="0.2"/></g><g transform="translate(-198,-110) scale(1,1)"><path fill="#ffffff" stroke="none" d="M 952 508.5 C 952 501.59644 957.59644 496 964.5 496 C 971.40356 496 977 501.59644 977 508.5 C 977 515.40356 971.40356 521 964.5 521 C 957.59644 521 952 515.40356 952 508.5 Z"/></g><g transform="translate(-198,-110) scale(1,1)"><path fill="none" stroke="#000000" d="M 952 508.5 C 952 501.59644 957.59644 496 964.5 496 C 971.40356 496 977 501.59644 977 508.5 C 977 515.40356 971.40356 521 964.5 521 C 957.59644 521 952 515.40356 952 508.5 Z" stroke-miterlimit="10"/></g><g transform="translate(-198,-110) scale(1,1)"><path fill="none" stroke="#000000" d="M 955 499 L 973 517" stroke-miterlimit="10"/></g><g transform="translate(-198,-110) scale(1,1)"><path fill="none" stroke="#000000" d="M 973 499 L 955 517" stroke-miterlimit="10"/></g><g transform="translate(-198,-110) scale(1,1)"><path fill="none" stroke="#000000" d="M 838 508 L 952 508" stroke-miterlimit="10"/></g><g transform="translate(-198,-110) scale(1,1)"><path fill="none" stroke="#000000" d="M 941.8373251423759 512.209517756016 L 952 508 L 941.8373251423758 503.790482243984" stroke-miterlimit="10"/></g><g transform="translate(-198,-110) scale(1,1)"><path fill="#C0C0C0" stroke="none" d="M 657 671 L 840.059814453125 671 Q 850.059814453125 671 850.059814453125 681 L 850.059814453125 708 Q 850.059814453125 718 840.059814453125 718 L 657 718 Q 647 718 647 708 L 647 681 Q 647 671 657 671 Z" opacity="0.2"/></g><g transform="translate(-198,-110) scale(1,1)"><path fill="#ffffff" stroke="none" d="M 650 664 L 833.059814453125 664 Q 843.059814453125 664 843.059814453125 674 L 843.059814453125 701 Q 843.059814453125 711 833.059814453125 711 L 650 711 Q 640 711 640 701 L 640 674 Q 640 664 650 664 Z"/></g><g transform="translate(-198,-110) scale(1,1)"><path fill="none" stroke="#000000" d="M 650 664 L 833.059814453125 664 Q 843.059814453125 664 843.059814453125 674 L 843.059814453125 701 Q 843.059814453125 711 833.059814453125 711 L 650 711 Q 640 711 640 701 L 640 674 Q 640 664 650 664 Z" stroke-miterlimit="10"/></g><g transform="translate(-198,-110) scale(1,1)"><g><path fill="none" stroke="none"/><text fill="#000000" stroke="none" font-family="PT Sans" font-size="20px" font-style="normal" font-weight="bold" text-decoration="none" x="645.9199905395508" y="690.5">alle Karten entsperren</text></g></g><g transform="translate(-198,-110) scale(1,1)"><path fill="none" stroke="#000000" d="M 744 624 L 744 664" stroke-miterlimit="10"/></g><g transform="translate(-198,-110) scale(1,1)"><path fill="none" stroke="#000000" d="M 739.790482243984 653.8373251423759 L 744 664 L 748.209517756016 653.8373251423759" stroke-miterlimit="10"/></g><g transform="translate(-198,-110) scale(1,1)"><path fill="#C0C0C0" stroke="none" d="M 959 691.5 C 959 684.59644 964.59644 679 971.5 679 C 978.40356 679 984 684.59644 984 691.5 C 984 698.40356 978.40356 704 971.5 704 C 964.59644 704 959 698.40356 959 691.5 Z" opacity="0.2"/></g><g transform="translate(-198,-110) scale(1,1)"><path fill="#ffffff" stroke="none" d="M 952 684.5 C 952 677.59644 957.59644 672 964.5 672 C 971.40356 672 977 677.59644 977 684.5 C 977 691.40356 971.40356 697 964.5 697 C 957.59644 697 952 691.40356 952 684.5 Z"/></g><g transform="translate(-198,-110) scale(1,1)"><path fill="none" stroke="#000000" d="M 952 684.5 C 952 677.59644 957.59644 672 964.5 672 C 971.40356 672 977 677.59644 977 684.5 C 977 691.40356 971.40356 697 964.5 697 C 957.59644 697 952 691.40356 952 684.5 Z" stroke-miterlimit="10"/></g><g transform="translate(-198,-110) scale(1,1)"><path fill="none" stroke="#000000" d="M 955 675 L 973 693" stroke-miterlimit="10"/></g><g transform="translate(-198,-110) scale(1,1)"><path fill="none" stroke="#000000" d="M 973 675 L 955 693" stroke-miterlimit="10"/></g><g transform="translate(-198,-110) scale(1,1)"><path fill="none" stroke="#000000" d="M 843 686 L 952 686" stroke-miterlimit="10"/></g><g transform="translate(-198,-110) scale(1,1)"><path fill="none" stroke="#000000" d="M 941.8373251423759 690.209517756016 L 952 686 L 941.8373251423758 681.790482243984" stroke-miterlimit="10"/></g></g></svg>