<svg version="1.1" xmlns="http://www.w3.org/2000/svg" xmlns:xlink="http://www.w3.org/1999/xlink" width="940.0197906494141" height="508"><defs/><g><g transform="translate(-182,-94) scale(1,1)"><rect fill="#ffffff" stroke="none" x="256" y="104" width="408" height="28"/></g><g transform="translate(-182,-94) scale(1,1)"><path fill="none" stroke="#000000" d="M 256 104 L 664 104 L 664 132 L 256 132 L 256 104 Z Z" stroke-miterlimit="10" stroke-width="2"/></g><g transform="translate(-182,-94) scale(1,1)"><path fill="none" stroke="#000000" d="M 256 403 L 256 104 L 664 104 L 664 403" stroke-miterlimit="10" stroke-width="2"/></g><g transform="translate(-182,-94) scale(1,1)"><g><path fill="none" stroke="none"/><text fill="#000000" stroke="none" font-family="PT Sans" font-size="20px" font-style="normal" font-weight="normal" text-decoration="none" x="416.92003631591797" y="128">Anwender</text></g></g><g transform="translate(-182,-94) scale(1,1)"><rect fill="#ffffff" stroke="none" x="664" y="104" width="416" height="28"/></g><g transform="translate(-182,-94) scale(1,1)"><path fill="none" stroke="#000000" d="M 664 104 L 1080 104 L 1080 132 L 664 132 L 664 104 Z Z" stroke-miterlimit="10" stroke-width="2"/></g><g transform="translate(-182,-94) scale(1,1)"><path fill="none" stroke="#000000" d="M 664 536 L 664 104 L 1080 104 L 1080 536" stroke-miterlimit="10" stroke-width="2"/></g><g transform="translate(-182,-94) scale(1,1)"><g><path fill="none" stroke="none"/><text fill="#000000" stroke="none" font-family="PT Sans" font-size="20px" font-style="normal" font-weight="normal" text-decoration="none" x="841.2300186157227" y="128">System</text></g></g><g transform="translate(-182,-94) scale(1,1)"><path fill="#C0C0C0" stroke="none" d="M 289 167 L 643.4196472167969 167 Q 653.4196472167969 167 653.4196472167969 177 L 653.4196472167969 213 Q 653.4196472167969 223 643.4196472167969 223 L 289 223 Q 279 223 279 213 L 279 177 Q 279 167 289 167 Z" opacity="0.2"/></g><g transform="translate(-182,-94) scale(1,1)"><path fill="#ffffff" stroke="none" d="M 282 160 L 636.4196472167969 160 Q 646.4196472167969 160 646.4196472167969 170 L 646.4196472167969 206 Q 646.4196472167969 216 636.4196472167969 216 L 282 216 Q 272 216 272 206 L 272 170 Q 272 160 282 160 Z"/></g><g transform="translate(-182,-94) scale(1,1)"><path fill="none" stroke="#000000" d="M 282 160 L 636.4196472167969 160 Q 646.4196472167969 160 646.4196472167969 170 L 646.4196472167969 206 Q 646.4196472167969 216 636.4196472167969 216 L 282 216 Q 272 216 272 206 L 272 170 Q 272 160 282 160 Z" stroke-miterlimit="10"/></g><g transform="translate(-182,-94) scale(1,1)"><g><path fill="none" stroke="none"/><text fill="#000000" stroke="none" font-family="PT Sans" font-size="20px" font-style="normal" font-weight="bold" text-decoration="none" x="276.32997131347656" y="186.5">Anwender scannt Personalausweisnummer</text></g></g><g transform="translate(-182,-94) scale(1,1)"><path fill="none" stroke="#000000" d="M 646 191 L 752 191" stroke-miterlimit="10"/></g><g transform="translate(-182,-94) scale(1,1)"><path fill="none" stroke="#000000" d="M 741.8373251423759 195.209517756016 L 752 191 L 741.8373251423758 186.790482243984" stroke-miterlimit="10"/></g><g transform="translate(-182,-94) scale(1,1)"><rect fill="#C0C0C0" stroke="none" x="759" y="183" width="222.059814453125" height="31" opacity="0.2"/></g><g transform="translate(-182,-94) scale(1,1)"><rect fill="#ffffff" stroke="none" x="752" y="176" width="222.059814453125" height="31"/></g><g transform="translate(-182,-94) scale(1,1)"><path fill="none" stroke="#000000" d="M 752 176 L 974.059814453125 176 L 974.059814453125 207 L 752 207 L 752 176 Z Z" stroke-miterlimit="10"/></g><g transform="translate(-182,-94) scale(1,1)"><rect fill="#ffffff" stroke="none" x="752" y="176" width="222.059814453125" height="31"/></g><g transform="translate(-182,-94) scale(1,1)"><path fill="none" stroke="#000000" d="M 752 176 L 974.059814453125 176 L 974.059814453125 207 L 752 207 L 752 176 Z Z" stroke-miterlimit="10"/></g><g transform="translate(-182,-94) scale(1,1)"><g><path fill="none" stroke="none"/><text fill="#000000" stroke="none" font-family="PT Sans" font-size="20px" font-style="normal" font-weight="bold" text-decoration="none" x="756.5799865722656" y="202.5">Personalausweisnummer</text></g></g><g transform="translate(-182,-94) scale(1,1)"><path fill="#C0C0C0" stroke="none" d="M 825 263 L 921.8199005126953 263 Q 931.8199005126953 263 931.8199005126953 273 L 931.8199005126953 309 Q 931.8199005126953 319 921.8199005126953 319 L 825 319 Q 815 319 815 309 L 815 273 Q 815 263 825 263 Z" opacity="0.2"/></g><g transform="translate(-182,-94) scale(1,1)"><path fill="#ffffff" stroke="none" d="M 818 256 L 914.8199005126953 256 Q 924.8199005126953 256 924.8199005126953 266 L 924.8199005126953 302 Q 924.8199005126953 312 914.8199005126953 312 L 818 312 Q 808 312 808 302 L 808 266 Q 808 256 818 256 Z"/></g><g transform="translate(-182,-94) scale(1,1)"><path fill="none" stroke="#000000" d="M 818 256 L 914.8199005126953 256 Q 924.8199005126953 256 924.8199005126953 266 L 924.8199005126953 302 Q 924.8199005126953 312 914.8199005126953 312 L 818 312 Q 808 312 808 302 L 808 266 Q 808 256 818 256 Z" stroke-miterlimit="10"/></g><g transform="translate(-182,-94) scale(1,1)"><g><path fill="none" stroke="none"/><text fill="#000000" stroke="none" font-family="PT Sans" font-size="20px" font-style="normal" font-weight="bold" text-decoration="none" x="819.1999969482422" y="282.5">überprüfen</text></g></g><g transform="translate(-182,-94) scale(1,1)"><path fill="#C0C0C0" stroke="none" d="M 839 383.5 L 871.5 351 L 903 383.5 L 871.5 415 L 839 383.5" opacity="0.2"/></g><g transform="translate(-182,-94) scale(1,1)"><path fill="#ffffff" stroke="none" d="M 832 376 L 864 344 L 896 376 L 864 408 L 832 376"/></g><g transform="translate(-182,-94) scale(1,1)"><path fill="none" stroke="#000000" d="M 832 376 L 864 344 L 896 376 L 864 408 L 832 376 L 832 376" stroke-miterlimit="10"/></g><g transform="translate(-182,-94) scale(1,1)"><path fill="#C0C0C0" stroke="none" d="M 929 439 L 1042.2398834228516 439 Q 1052.2398834228516 439 1052.2398834228516 449 L 1052.2398834228516 485 Q 1052.2398834228516 495 1042.2398834228516 495 L 929 495 Q 919 495 919 485 L 919 449 Q 919 439 929 439 Z" opacity="0.2"/></g><g transform="translate(-182,-94) scale(1,1)"><path fill="#ffffff" stroke="none" d="M 922 432 L 1035.2398834228516 432 Q 1045.2398834228516 432 1045.2398834228516 442 L 1045.2398834228516 478 Q 1045.2398834228516 488 1035.2398834228516 488 L 922 488 Q 912 488 912 478 L 912 442 Q 912 432 922 432 Z"/></g><g transform="translate(-182,-94) scale(1,1)"><path fill="none" stroke="#000000" d="M 922 432 L 1035.2398834228516 432 Q 1045.2398834228516 432 1045.2398834228516 442 L 1045.2398834228516 478 Q 1045.2398834228516 488 1035.2398834228516 488 L 922 488 Q 912 488 912 478 L 912 442 Q 912 432 922 432 Z" stroke-miterlimit="10"/></g><g transform="translate(-182,-94) scale(1,1)"><g><path fill="none" stroke="none"/><text fill="#000000" stroke="none" font-family="PT Sans" font-size="20px" font-style="normal" font-weight="bold" text-decoration="none" x="933.879997253418" y="458.5">Tor öffnen</text></g></g><g transform="translate(-182,-94) scale(1,1)"><path fill="#C0C0C0" stroke="none" d="M 705 439 L 856.0398712158203 439 Q 866.0398712158203 439 866.0398712158203 449 L 866.0398712158203 484 Q 866.0398712158203 494 856.0398712158203 494 L 705 494 Q 695 494 695 484 L 695 449 Q 695 439 705 439 Z" opacity="0.2"/></g><g transform="translate(-182,-94) scale(1,1)"><path fill="#ffffff" stroke="none" d="M 698 432 L 849.0398712158203 432 Q 859.0398712158203 432 859.0398712158203 442 L 859.0398712158203 477 Q 859.0398712158203 487 849.0398712158203 487 L 698 487 Q 688 487 688 477 L 688 442 Q 688 432 698 432 Z"/></g><g transform="translate(-182,-94) scale(1,1)"><path fill="none" stroke="#000000" d="M 698 432 L 849.0398712158203 432 Q 859.0398712158203 432 859.0398712158203 442 L 859.0398712158203 477 Q 859.0398712158203 487 849.0398712158203 487 L 698 487 Q 688 487 688 477 L 688 442 Q 688 432 698 432 Z" stroke-miterlimit="10"/></g><g transform="translate(-182,-94) scale(1,1)"><g><path fill="none" stroke="none"/><text fill="#000000" stroke="none" font-family="PT Sans" font-size="20px" font-style="normal" font-weight="bold" text-decoration="none" x="692.3699951171875" y="458.5">Meldung ausgeben</text></g></g><g transform="translate(-182,-94) scale(1,1)"><path fill="none" stroke="#000000" d="M 864 312 L 864 344" stroke-miterlimit="10"/></g><g transform="translate(-182,-94) scale(1,1)"><path fill="none" stroke="#000000" d="M 859.790482243984 333.83732514237585 L 864 344 L 868.209517756016 333.83732514237585" stroke-miterlimit="10"/></g><g transform="translate(-182,-94) scale(1,1)"><path fill="none" stroke="#000000" d="M 832 376 L 736 376 L 736 432" stroke-miterlimit="10"/></g><g transform="translate(-182,-94) scale(1,1)"><path fill="none" stroke="#000000" d="M 731.790482243984 421.83732514237585 L 736 432 L 740.209517756016 421.83732514237585" stroke-miterlimit="10"/></g><g transform="translate(-182,-94) scale(1,1)"><g><path fill="none" stroke="none"/><text fill="#000000" stroke="none" font-family="PT Sans" font-size="20px" font-style="normal" font-weight="normal" text-decoration="none" x="566.2000045776367" y="367.5">[Jahreskarte nicht vorhanden]</text></g></g><g transform="translate(-182,-94) scale(1,1)"><path fill="none" stroke="#000000" d="M 896 376 L 978 376 L 978 432" stroke-miterlimit="10"/></g><g transform="translate(-182,-94) scale(1,1)"><path fill="none" stroke="#000000" d="M 973.790482243984 421.83732514237585 L 978 432 L 982.209517756016 421.83732514237585" stroke-miterlimit="10"/></g><g transform="translate(-182,-94) scale(1,1)"><g><path fill="none" stroke="none"/><text fill="#000000" stroke="none" font-family="PT Sans" font-size="20px" font-style="normal" font-weight="normal" text-decoration="none" x="902.1999969482422" y="370.5">[Jahreskarte vorhanden]</text></g></g><g transform="translate(-182,-94) scale(1,1)"><path fill="none" stroke="#000000" d="M 859 464 L 872 464 L 872 520" stroke-miterlimit="10"/></g><g transform="translate(-182,-94) scale(1,1)"><path fill="none" stroke="#000000" d="M 867.790482243984 509.83732514237585 L 872 520 L 876.209517756016 509.83732514237585" stroke-miterlimit="10"/></g><g transform="translate(-182,-94) scale(1,1)"><path fill="none" stroke="#000000" d="M 912 464 L 896 464 L 896 520" stroke-miterlimit="10"/></g><g transform="translate(-182,-94) scale(1,1)"><path fill="none" stroke="#000000" d="M 891.790482243984 509.83732514237585 L 896 520 L 900.209517756016 509.83732514237585" stroke-miterlimit="10"/></g><g transform="translate(-182,-94) scale(1,1)"><path fill="#C0C0C0" stroke="none" d="M 879 583 C 879 574.1634432 886.1634432 567 895 567 C 903.8365568 567 911 574.1634432 911 583 C 911 591.8365568 903.8365568 599 895 599 C 886.1634432 599 879 591.8365568 879 583 Z" opacity="0.2"/></g><g transform="translate(-182,-94) scale(1,1)"><path fill="none" stroke="#000000" d="M 872 576 C 872 567.1634432 879.1634432 560 888 560 C 896.8365568 560 904 567.1634432 904 576 C 904 584.8365568 896.8365568 592 888 592 C 879.1634432 592 872 584.8365568 872 576 Z" stroke-miterlimit="10"/></g><g transform="translate(-182,-94) scale(1,1)"><path fill="#000000" stroke="none" d="M 877 576 C 877 569.9248672 881.9248672 565 888 565 C 894.0751328 565 899 569.9248672 899 576 C 899 582.0751328 894.0751328 587 888 587 C 881.9248672 587 877 582.0751328 877 576 Z"/></g><g transform="translate(-182,-94) scale(1,1)"><path fill="none" stroke="#000000" d="M 888 525 L 888 560" stroke-miterlimit="10"/></g><g transform="translate(-182,-94) scale(1,1)"><path fill="none" stroke="#000000" d="M 883.790482243984 549.8373251423759 L 888 560 L 892.209517756016 549.8373251423759" stroke-miterlimit="10"/></g><g transform="translate(-182,-94) scale(1,1)"><path fill="none" stroke="#000000" d="M 864 207 L 864 256" stroke-miterlimit="10"/></g><g transform="translate(-182,-94) scale(1,1)"><path fill="none" stroke="#000000" d="M 859.790482243984 245.83732514237585 L 864 256 L 868.209517756016 245.83732514237585" stroke-miterlimit="10"/></g><g transform="translate(-182,-94) scale(1,1)"><path fill="#C0C0C0" stroke="none" d="M 199 192.5 C 199 187.2532944 203.2532944 183 208.5 183 C 213.7467056 183 218 187.2532944 218 192.5 C 218 197.7467056 213.7467056 202 208.5 202 C 203.2532944 202 199 197.7467056 199 192.5 Z" opacity="0.2"/></g><g transform="translate(-182,-94) scale(1,1)"><path fill="#000000" stroke="none" d="M 192 185.5 C 192 180.2532944 196.2532944 176 201.5 176 C 206.7467056 176 211 180.2532944 211 185.5 C 211 190.7467056 206.7467056 195 201.5 195 C 196.2532944 195 192 190.7467056 192 185.5 Z"/></g><g transform="translate(-182,-94) scale(1,1)"><path fill="none" stroke="#000000" d="M 211 186 L 272 186" stroke-miterlimit="10"/></g><g transform="translate(-182,-94) scale(1,1)"><path fill="none" stroke="#000000" d="M 261.83732514237585 190.209517756016 L 272 186 L 261.83732514237585 181.790482243984" stroke-miterlimit="10"/></g><g transform="translate(-182,-94) scale(1,1)"><path fill="#C0C0C0" stroke="none" d="M 858 527 L 932 527 Q 935 527 935 530 L 935 529 Q 935 532 932 532 L 858 532 Q 855 532 855 529 L 855 530 Q 855 527 858 527 Z" opacity="0.2"/></g><g transform="translate(-182,-94) scale(1,1)"><path fill="#000000" stroke="none" d="M 851 520 L 925 520 Q 928 520 928 523 L 928 523 Q 928 526 925 526 L 851 526 Q 848 526 848 523 L 848 523 Q 848 520 851 520 Z"/></g></g></svg>