<svg version="1.1" xmlns="http://www.w3.org/2000/svg" xmlns:xlink="http://www.w3.org/1999/xlink" width="829" height="684"><defs/><g><g transform="translate(-166,-134) scale(1,1)"><rect fill="#ffffff" stroke="none" x="224" y="144" width="328" height="28"/></g><g transform="translate(-166,-134) scale(1,1)"><path fill="none" stroke="#000000" d="M 224 144 L 552 144 L 552 172 L 224 172 L 224 144 Z Z" stroke-miterlimit="10" stroke-width="2"/></g><g transform="translate(-166,-134) scale(1,1)"><path fill="none" stroke="#000000" d="M 224 680 L 224 144 L 552 144 L 552 680" stroke-miterlimit="10" stroke-width="2"/></g><g transform="translate(-166,-134) scale(1,1)"><g><path fill="none" stroke="none"/><text fill="#000000" stroke="none" font-family="PT Sans" font-size="20px" font-style="normal" font-weight="normal" text-decoration="none" x="344.92003631591797" y="168">Anwender</text></g></g><g transform="translate(-166,-134) scale(1,1)"><rect fill="#ffffff" stroke="none" x="552" y="144" width="376" height="28"/></g><g transform="translate(-166,-134) scale(1,1)"><path fill="none" stroke="#000000" d="M 552 144 L 928 144 L 928 172 L 552 172 L 552 144 Z Z" stroke-miterlimit="10" stroke-width="2"/></g><g transform="translate(-166,-134) scale(1,1)"><path fill="none" stroke="#000000" d="M 552 808 L 552 144 L 928 144 L 928 808" stroke-miterlimit="10" stroke-width="2"/></g><g transform="translate(-166,-134) scale(1,1)"><g><path fill="none" stroke="none"/><text fill="#000000" stroke="none" font-family="PT Sans" font-size="20px" font-style="normal" font-weight="normal" text-decoration="none" x="709.2300186157227" y="168">System</text></g></g><g transform="translate(-166,-134) scale(1,1)"><path fill="#C0C0C0" stroke="none" d="M 289 207 L 476.83985900878906 207 Q 486.83985900878906 207 486.83985900878906 217 L 486.83985900878906 253 Q 486.83985900878906 263 476.83985900878906 263 L 289 263 Q 279 263 279 253 L 279 217 Q 279 207 289 207 Z" opacity="0.2"/></g><g transform="translate(-166,-134) scale(1,1)"><path fill="#ffffff" stroke="none" d="M 282 200 L 469.83985900878906 200 Q 479.83985900878906 200 479.83985900878906 210 L 479.83985900878906 246 Q 479.83985900878906 256 469.83985900878906 256 L 282 256 Q 272 256 272 246 L 272 210 Q 272 200 282 200 Z"/></g><g transform="translate(-166,-134) scale(1,1)"><path fill="none" stroke="#000000" d="M 282 200 L 469.83985900878906 200 Q 479.83985900878906 200 479.83985900878906 210 L 479.83985900878906 246 Q 479.83985900878906 256 469.83985900878906 256 L 282 256 Q 272 256 272 246 L 272 210 Q 272 200 282 200 Z" stroke-miterlimit="10"/></g><g transform="translate(-166,-134) scale(1,1)"><g><path fill="none" stroke="none"/><text fill="#000000" stroke="none" font-family="PT Sans" font-size="20px" font-style="normal" font-weight="bold" text-decoration="none" x="286.52001953125" y="226.5">Anwender checkt ein</text></g></g><g transform="translate(-166,-134) scale(1,1)"><path fill="#C0C0C0" stroke="none" d="M 183 240.5 C 183 235.2532944 187.2532944 231 192.5 231 C 197.7467056 231 202 235.2532944 202 240.5 C 202 245.7467056 197.7467056 250 192.5 250 C 187.2532944 250 183 245.7467056 183 240.5 Z" opacity="0.2"/></g><g transform="translate(-166,-134) scale(1,1)"><path fill="#000000" stroke="none" d="M 176 233.5 C 176 228.2532944 180.2532944 224 185.5 224 C 190.7467056 224 195 228.2532944 195 233.5 C 195 238.7467056 190.7467056 243 185.5 243 C 180.2532944 243 176 238.7467056 176 233.5 Z"/></g><g transform="translate(-166,-134) scale(1,1)"><path fill="none" stroke="#000000" d="M 195 233 L 272 233" stroke-miterlimit="10"/></g><g transform="translate(-166,-134) scale(1,1)"><path fill="none" stroke="#000000" d="M 261.83732514237585 237.209517756016 L 272 233 L 261.83732514237585 228.790482243984" stroke-miterlimit="10"/></g><g transform="translate(-166,-134) scale(1,1)"><path fill="#C0C0C0" stroke="none" d="M 697 471 L 911.8797760009766 471 Q 921.8797760009766 471 921.8797760009766 481 L 921.8797760009766 517 Q 921.8797760009766 527 911.8797760009766 527 L 697 527 Q 687 527 687 517 L 687 481 Q 687 471 697 471 Z" opacity="0.2"/></g><g transform="translate(-166,-134) scale(1,1)"><path fill="#ffffff" stroke="none" d="M 690 464 L 904.8797760009766 464 Q 914.8797760009766 464 914.8797760009766 474 L 914.8797760009766 510 Q 914.8797760009766 520 904.8797760009766 520 L 690 520 Q 680 520 680 510 L 680 474 Q 680 464 690 464 Z"/></g><g transform="translate(-166,-134) scale(1,1)"><path fill="none" stroke="#000000" d="M 690 464 L 904.8797760009766 464 Q 914.8797760009766 464 914.8797760009766 474 L 914.8797760009766 510 Q 914.8797760009766 520 904.8797760009766 520 L 690 520 Q 680 520 680 510 L 680 474 Q 680 464 690 464 Z" stroke-miterlimit="10"/></g><g transform="translate(-166,-134) scale(1,1)"><g><path fill="none" stroke="none"/><text fill="#000000" stroke="none" font-family="PT Sans" font-size="20px" font-style="normal" font-weight="bold" text-decoration="none" x="713.2399826049805" y="490.5">Eintrittszeit merken</text></g></g><g transform="translate(-166,-134) scale(1,1)"><path fill="none" stroke="#000000" d="M 480 231 L 632 231" stroke-miterlimit="10"/></g><g transform="translate(-166,-134) scale(1,1)"><path fill="none" stroke="#000000" d="M 621.8373251423759 235.209517756016 L 632 231 L 621.8373251423758 226.790482243984" stroke-miterlimit="10"/></g><g transform="translate(-166,-134) scale(1,1)"><rect fill="#C0C0C0" stroke="none" x="639" y="223" width="126.51991271972656" height="31" opacity="0.2"/></g><g transform="translate(-166,-134) scale(1,1)"><rect fill="#ffffff" stroke="none" x="632" y="216" width="126.51991271972656" height="31"/></g><g transform="translate(-166,-134) scale(1,1)"><path fill="none" stroke="#000000" d="M 632 216 L 758.5199127197266 216 L 758.5199127197266 247 L 632 247 L 632 216 Z Z" stroke-miterlimit="10"/></g><g transform="translate(-166,-134) scale(1,1)"><rect fill="#ffffff" stroke="none" x="632" y="216" width="126.51991271972656" height="31"/></g><g transform="translate(-166,-134) scale(1,1)"><path fill="none" stroke="#000000" d="M 632 216 L 758.5199127197266 216 L 758.5199127197266 247 L 632 247 L 632 216 Z Z" stroke-miterlimit="10"/></g><g transform="translate(-166,-134) scale(1,1)"><g><path fill="none" stroke="none"/><text fill="#000000" stroke="none" font-family="PT Sans" font-size="20px" font-style="normal" font-weight="bold" text-decoration="none" x="636.75" y="242.5">Kartenummer</text></g></g><g transform="translate(-166,-134) scale(1,1)"><rect fill="#C0C0C0" stroke="none" x="695" y="567" width="137.41990661621094" height="31" opacity="0.2"/></g><g transform="translate(-166,-134) scale(1,1)"><rect fill="#ffffff" stroke="none" x="688" y="560" width="137.41990661621094" height="31"/></g><g transform="translate(-166,-134) scale(1,1)"><path fill="none" stroke="#000000" d="M 688 560 L 825.4199066162109 560 L 825.4199066162109 591 L 688 591 L 688 560 Z Z" stroke-miterlimit="10"/></g><g transform="translate(-166,-134) scale(1,1)"><rect fill="#ffffff" stroke="none" x="688" y="560" width="137.41990661621094" height="31"/></g><g transform="translate(-166,-134) scale(1,1)"><path fill="none" stroke="#000000" d="M 688 560 L 825.4199066162109 560 L 825.4199066162109 591 L 688 591 L 688 560 Z Z" stroke-miterlimit="10"/></g><g transform="translate(-166,-134) scale(1,1)"><g><path fill="none" stroke="none"/><text fill="#000000" stroke="none" font-family="PT Sans" font-size="20px" font-style="normal" font-weight="bold" text-decoration="none" x="692.7300033569336" y="586.5">Kartennummer</text></g></g><g transform="translate(-166,-134) scale(1,1)"><path fill="#C0C0C0" stroke="none" d="M 665 639 L 868 639 Q 878 639 878 649 L 878 685 Q 878 695 868 695 L 665 695 Q 655 695 655 685 L 655 649 Q 655 639 665 639 Z" opacity="0.2"/></g><g transform="translate(-166,-134) scale(1,1)"><path fill="#ffffff" stroke="none" d="M 658 632 L 861 632 Q 871 632 871 642 L 871 678 Q 871 688 861 688 L 658 688 Q 648 688 648 678 L 648 642 Q 648 632 658 632 Z"/></g><g transform="translate(-166,-134) scale(1,1)"><path fill="none" stroke="#000000" d="M 658 632 L 861 632 Q 871 632 871 642 L 871 678 Q 871 688 861 688 L 658 688 Q 648 688 648 678 L 648 642 Q 648 632 658 632 Z" stroke-miterlimit="10"/></g><g transform="translate(-166,-134) scale(1,1)"><g><path fill="none" stroke="none"/><text fill="#000000" stroke="none" font-family="PT Sans" font-size="20px" font-style="normal" font-weight="bold" text-decoration="none" x="673.5400848388672" y="658.5">Zeitdelta berechnen</text></g></g><g transform="translate(-166,-134) scale(1,1)"><path fill="none" stroke="#000000" d="M 757 591 L 757 632" stroke-miterlimit="10"/></g><g transform="translate(-166,-134) scale(1,1)"><path fill="none" stroke="#000000" d="M 752.790482243984 621.8373251423759 L 757 632 L 761.209517756016 621.8373251423759" stroke-miterlimit="10"/></g><g transform="translate(-166,-134) scale(1,1)"><path fill="#C0C0C0" stroke="none" d="M 673 743 L 849.9798278808594 743 Q 859.9798278808594 743 859.9798278808594 753 L 859.9798278808594 789 Q 859.9798278808594 799 849.9798278808594 799 L 673 799 Q 663 799 663 789 L 663 753 Q 663 743 673 743 Z" opacity="0.2"/></g><g transform="translate(-166,-134) scale(1,1)"><path fill="#ffffff" stroke="none" d="M 666 736 L 842.9798278808594 736 Q 852.9798278808594 736 852.9798278808594 746 L 852.9798278808594 782 Q 852.9798278808594 792 842.9798278808594 792 L 666 792 Q 656 792 656 782 L 656 746 Q 656 736 666 736 Z"/></g><g transform="translate(-166,-134) scale(1,1)"><path fill="none" stroke="#000000" d="M 666 736 L 842.9798278808594 736 Q 852.9798278808594 736 852.9798278808594 746 L 852.9798278808594 782 Q 852.9798278808594 792 842.9798278808594 792 L 666 792 Q 656 792 656 782 L 656 746 Q 656 736 666 736 Z" stroke-miterlimit="10"/></g><g transform="translate(-166,-134) scale(1,1)"><g><path fill="none" stroke="none"/><text fill="#000000" stroke="none" font-family="PT Sans" font-size="20px" font-style="normal" font-weight="bold" text-decoration="none" x="685.6299819946289" y="762.5">Restzeit merken</text></g></g><g transform="translate(-166,-134) scale(1,1)"><path fill="none" stroke="#000000" d="M 758 688 L 758 736" stroke-miterlimit="10"/></g><g transform="translate(-166,-134) scale(1,1)"><path fill="none" stroke="#000000" d="M 753.790482243984 725.8373251423759 L 758 736 L 762.209517756016 725.8373251423759" stroke-miterlimit="10"/></g><g transform="translate(-166,-134) scale(1,1)"><path fill="#C0C0C0" stroke="none" d="M 967 779.5 C 967 772.59644 972.59644 767 979.5 767 C 986.40356 767 992 772.59644 992 779.5 C 992 786.40356 986.40356 792 979.5 792 C 972.59644 792 967 786.40356 967 779.5 Z" opacity="0.2"/></g><g transform="translate(-166,-134) scale(1,1)"><path fill="none" stroke="#000000" d="M 960 772.5 C 960 765.59644 965.59644 760 972.5 760 C 979.40356 760 985 765.59644 985 772.5 C 985 779.40356 979.40356 785 972.5 785 C 965.59644 785 960 779.40356 960 772.5 Z" stroke-miterlimit="10"/></g><g transform="translate(-166,-134) scale(1,1)"><path fill="#000000" stroke="none" d="M 965 772.5 C 965 768.357864 968.357864 765 972.5 765 C 976.642136 765 980 768.357864 980 772.5 C 980 776.642136 976.642136 780 972.5 780 C 968.357864 780 965 776.642136 965 772.5 Z"/></g><g transform="translate(-166,-134) scale(1,1)"><path fill="none" stroke="#000000" d="M 853 772 L 960 772" stroke-miterlimit="10"/></g><g transform="translate(-166,-134) scale(1,1)"><path fill="none" stroke="#000000" d="M 949.8373251423759 776.209517756016 L 960 772 L 949.8373251423758 767.790482243984" stroke-miterlimit="10"/></g><g transform="translate(-166,-134) scale(1,1)"><path fill="#C0C0C0" stroke="none" d="M 679 328 L 703.5 303 L 727 328 L 703.5 352 L 679 328" opacity="0.2"/></g><g transform="translate(-166,-134) scale(1,1)"><path fill="#ffffff" stroke="none" d="M 672 320.5 L 696 296 L 720 320.5 L 696 345 L 672 320.5"/></g><g transform="translate(-166,-134) scale(1,1)"><path fill="none" stroke="#000000" d="M 672 320.5 L 696 296 L 720 320.5 L 696 345 L 672 320.5 L 672 320.5" stroke-miterlimit="10"/></g><g transform="translate(-166,-134) scale(1,1)"><path fill="none" stroke="#000000" d="M 697 247 L 697 296" stroke-miterlimit="10"/></g><g transform="translate(-166,-134) scale(1,1)"><path fill="none" stroke="#000000" d="M 692.790482243984 285.83732514237585 L 697 296 L 701.209517756016 285.83732514237585" stroke-miterlimit="10"/></g><g transform="translate(-166,-134) scale(1,1)"><path fill="none" stroke="#000000" d="M 720 320 L 808 320 L 808 464" stroke-miterlimit="10"/></g><g transform="translate(-166,-134) scale(1,1)"><path fill="none" stroke="#000000" d="M 803.790482243984 453.83732514237585 L 808 464 L 812.209517756016 453.83732514237585" stroke-miterlimit="10"/></g><g transform="translate(-166,-134) scale(1,1)"><g><path fill="none" stroke="none"/><text fill="#000000" stroke="none" font-family="PT Sans" font-size="20px" font-style="normal" font-weight="normal" text-decoration="none" x="727.5" y="312.5">[Zeit vorhanden]</text></g></g><g transform="translate(-166,-134) scale(1,1)"><path fill="#C0C0C0" stroke="none" d="M 585 383 L 736.0398712158203 383 Q 746.0398712158203 383 746.0398712158203 393 L 746.0398712158203 428 Q 746.0398712158203 438 736.0398712158203 438 L 585 438 Q 575 438 575 428 L 575 393 Q 575 383 585 383 Z" opacity="0.2"/></g><g transform="translate(-166,-134) scale(1,1)"><path fill="#ffffff" stroke="none" d="M 578 376 L 729.0398712158203 376 Q 739.0398712158203 376 739.0398712158203 386 L 739.0398712158203 421 Q 739.0398712158203 431 729.0398712158203 431 L 578 431 Q 568 431 568 421 L 568 386 Q 568 376 578 376 Z"/></g><g transform="translate(-166,-134) scale(1,1)"><path fill="none" stroke="#000000" d="M 578 376 L 729.0398712158203 376 Q 739.0398712158203 376 739.0398712158203 386 L 739.0398712158203 421 Q 739.0398712158203 431 729.0398712158203 431 L 578 431 Q 568 431 568 421 L 568 386 Q 568 376 578 376 Z" stroke-miterlimit="10"/></g><g transform="translate(-166,-134) scale(1,1)"><g><path fill="none" stroke="none"/><text fill="#000000" stroke="none" font-family="PT Sans" font-size="20px" font-style="normal" font-weight="bold" text-decoration="none" x="572.3699951171875" y="402.5">Meldung ausgeben</text></g></g><g transform="translate(-166,-134) scale(1,1)"><path fill="none" stroke="#000000" d="M 672 320 L 632 320 L 632 376" stroke-miterlimit="10"/></g><g transform="translate(-166,-134) scale(1,1)"><path fill="none" stroke="#000000" d="M 627.790482243984 365.83732514237585 L 632 376 L 636.209517756016 365.83732514237585" stroke-miterlimit="10"/></g><g transform="translate(-166,-134) scale(1,1)"><g><path fill="none" stroke="none"/><text fill="#000000" stroke="none" font-family="PT Sans" font-size="20px" font-style="normal" font-weight="normal" text-decoration="none" x="487.5" y="311.5">[Zeit nicht vorhanden]</text></g></g><g transform="translate(-166,-134) scale(1,1)"><path fill="#C0C0C0" stroke="none" d="M 289 559 L 458.85986328125 559 Q 468.85986328125 559 468.85986328125 569 L 468.85986328125 596 Q 468.85986328125 606 458.85986328125 606 L 289 606 Q 279 606 279 596 L 279 569 Q 279 559 289 559 Z" opacity="0.2"/></g><g transform="translate(-166,-134) scale(1,1)"><path fill="#ffffff" stroke="none" d="M 282 552 L 451.85986328125 552 Q 461.85986328125 552 461.85986328125 562 L 461.85986328125 589 Q 461.85986328125 599 451.85986328125 599 L 282 599 Q 272 599 272 589 L 272 562 Q 272 552 282 552 Z"/></g><g transform="translate(-166,-134) scale(1,1)"><path fill="none" stroke="#000000" d="M 282 552 L 451.85986328125 552 Q 461.85986328125 552 461.85986328125 562 L 461.85986328125 589 Q 461.85986328125 599 451.85986328125 599 L 282 599 Q 272 599 272 589 L 272 562 Q 272 552 282 552 Z" stroke-miterlimit="10"/></g><g transform="translate(-166,-134) scale(1,1)"><g><path fill="none" stroke="none"/><text fill="#000000" stroke="none" font-family="PT Sans" font-size="20px" font-style="normal" font-weight="bold" text-decoration="none" x="276.2000045776367" y="578.5">Anwender checkt aus</text></g></g><g transform="translate(-166,-134) scale(1,1)"><path fill="none" stroke="#000000" d="M 462 576 L 688 576" stroke-miterlimit="10"/></g><g transform="translate(-166,-134) scale(1,1)"><path fill="none" stroke="#000000" d="M 677.8373251423759 580.209517756016 L 688 576 L 677.8373251423758 571.790482243984" stroke-miterlimit="10"/></g><g transform="translate(-166,-134) scale(1,1)"><path fill="none" stroke="#000000" d="M 680 495 L 659 495" stroke-miterlimit="10"/></g><g transform="translate(-166,-134) scale(1,1)"><path fill="none" stroke="#000000" d="M 669.1626748576241 490.790482243984 L 659 495 L 669.1626748576241 499.209517756016" stroke-miterlimit="10"/></g><g transform="translate(-166,-134) scale(1,1)"><path fill="#C0C0C0" stroke="none" d="M 577 479 L 655.7199249267578 479 Q 665.7199249267578 479 665.7199249267578 489 L 665.7199249267578 516 Q 665.7199249267578 526 655.7199249267578 526 L 577 526 Q 567 526 567 516 L 567 489 Q 567 479 577 479 Z" opacity="0.2"/></g><g transform="translate(-166,-134) scale(1,1)"><path fill="#ffffff" stroke="none" d="M 570 472 L 648.7199249267578 472 Q 658.7199249267578 472 658.7199249267578 482 L 658.7199249267578 509 Q 658.7199249267578 519 648.7199249267578 519 L 570 519 Q 560 519 560 509 L 560 482 Q 560 472 570 472 Z"/></g><g transform="translate(-166,-134) scale(1,1)"><path fill="none" stroke="#000000" d="M 570 472 L 648.7199249267578 472 Q 658.7199249267578 472 658.7199249267578 482 L 658.7199249267578 509 Q 658.7199249267578 519 648.7199249267578 519 L 570 519 Q 560 519 560 509 L 560 482 Q 560 472 570 472 Z" stroke-miterlimit="10"/></g><g transform="translate(-166,-134) scale(1,1)"><g><path fill="none" stroke="none"/><text fill="#000000" stroke="none" font-family="PT Sans" font-size="20px" font-style="normal" font-weight="bold" text-decoration="none" x="564.6200180053711" y="498.5">Tor öffnen</text></g></g><g transform="translate(-166,-134) scale(1,1)"><path fill="#C0C0C0" stroke="none" d="M 297 479 L 442.3398742675781 479 Q 452.3398742675781 479 452.3398742675781 489 L 452.3398742675781 516 Q 452.3398742675781 526 442.3398742675781 526 L 297 526 Q 287 526 287 516 L 287 489 Q 287 479 297 479 Z" opacity="0.2"/></g><g transform="translate(-166,-134) scale(1,1)"><path fill="#ffffff" stroke="none" d="M 290 472 L 435.3398742675781 472 Q 445.3398742675781 472 445.3398742675781 482 L 445.3398742675781 509 Q 445.3398742675781 519 435.3398742675781 519 L 290 519 Q 280 519 280 509 L 280 482 Q 280 472 290 472 Z"/></g><g transform="translate(-166,-134) scale(1,1)"><path fill="none" stroke="#000000" d="M 290 472 L 435.3398742675781 472 Q 445.3398742675781 472 445.3398742675781 482 L 445.3398742675781 509 Q 445.3398742675781 519 435.3398742675781 519 L 290 519 Q 280 519 280 509 L 280 482 Q 280 472 290 472 Z" stroke-miterlimit="10"/></g><g transform="translate(-166,-134) scale(1,1)"><g><path fill="none" stroke="none"/><text fill="#000000" stroke="none" font-family="PT Sans" font-size="20px" font-style="normal" font-weight="bold" text-decoration="none" x="284.77001190185547" y="498.5">Anwender tritt ein</text></g></g><g transform="translate(-166,-134) scale(1,1)"><path fill="none" stroke="#000000" d="M 560 495 L 445 495" stroke-miterlimit="10"/></g><g transform="translate(-166,-134) scale(1,1)"><path fill="none" stroke="#000000" d="M 455.16267485762415 490.790482243984 L 445 495 L 455.16267485762415 499.209517756016" stroke-miterlimit="10"/></g><g transform="translate(-166,-134) scale(1,1)"><path fill="none" stroke="#000000" d="M 363 519 L 363 552" stroke-miterlimit="10"/></g><g transform="translate(-166,-134) scale(1,1)"><path fill="none" stroke="#000000" d="M 358.790482243984 541.8373251423759 L 363 552 L 367.209517756016 541.8373251423759" stroke-miterlimit="10"/></g></g></svg>